# SSTK version 0.8.0
# 39
mtllib original-39.mtl
o BF_BC1/BF_BC/mesh350/mesh350-geometry#mesh350-geometry
v -0.442051 -0.650343 -0.052607
v 0.484679 -0.652536 -0.052607
v -0.442051 -0.652536 -0.052607
v 0.484679 -0.650343 -0.052607
v -0.442051 -0.653870 -0.057586
v 0.484679 -0.648625 -0.050889
v 0.484679 -0.653870 -0.057586
v -0.442051 -0.648625 -0.050889
v 0.484679 -0.655450 -0.058798
v 0.484679 -0.648625 -0.045922
v -0.442051 -0.655450 -0.058798
v -0.442051 -0.648625 -0.045922
v 0.484679 -0.691802 -0.058798
v -0.442051 -0.664430 -0.045922
v -0.442051 -0.691802 -0.058798
v 0.484679 -0.664430 -0.045922
v -0.442051 -0.691802 -0.056843
v 0.484679 -0.664430 -0.017409
v 0.484679 -0.691802 -0.056843
v -0.442051 -0.664430 -0.017409
v 0.484679 -0.699949 -0.056843
v -0.442051 -0.648872 -0.017409
v -0.442051 -0.699949 -0.056843
v 0.484679 -0.648872 -0.017409
v -0.442051 -0.699949 -0.010897
v 0.484679 -0.648869 -0.016583
v 0.484679 -0.699949 -0.010897
v -0.442051 -0.648869 -0.016583
v 0.484679 -0.691802 -0.010897
v 0.484679 -0.653471 -0.008611
v -0.442051 -0.691802 -0.010897
v -0.442051 -0.653471 -0.008611
v -0.442051 -0.691802 -0.008290
v -0.442051 -0.668503 -0.008611
v 0.484679 -0.691802 -0.008290
v 0.484679 -0.668503 -0.008611
v 0.484679 -0.668503 -0.008290
v -0.442051 -0.668503 -0.008290
vn 0 0.3826828980362604 -0.9238797538373537
vn 0 0 -1
vn 0 0 1
vn 0 -0.3826828980362604 0.9238797538373537
vn 0 0.9659258492011171 -0.2588189595935752
vn 0 0.8314698396094836 -0.5555698928305778
vn 0 -0.9659258492011171 0.2588189595935752
vn 0 -0.8314698396094836 0.5555698928305778
vn 0 0.9238797538373539 -0.38268289803625993
vn 0 -0.9238797538373539 0.38268289803625993
vn 0 0.3214399841690814 -0.9469299533637009
vn 0 -0.3214399841690814 0.9469299533637009
vn 0 1 0
vn 0 -1 0
vn 0 0.9999910746463365 -0.004225000315383388
vn 0 -0.9999910746463365 0.004225000315383388
vn 0 0.8660253028382761 0.500000174843842
vn 0 -0.8660253028382761 -0.500000174843842
usemtl material_0_0
f 1//1 2//2 3//2
f 2//2 1//1 4//1
f 3//3 2//3 1//4
f 4//4 1//4 2//3
f 2//5 5//6 3//5
f 3//7 5//8 2//7
f 1//1 6//9 4//1
f 4//4 6//10 1//4
f 5//6 2//5 7//6
f 7//8 2//7 5//8
f 6//9 1//1 8//9
f 8//10 1//4 6//10
f 9//11 5//6 7//6
f 7//8 5//8 9//12
f 8//9 10//13 6//9
f 6//10 10//14 8//10
f 5//6 9//11 11//11
f 11//12 9//12 5//8
f 10//13 8//9 12//13
f 12//14 8//10 10//14
f 13//2 11//11 9//11
f 9//12 11//12 13//3
f 14//3 10//3 12//3
f 12//2 10//2 14//2
f 11//11 13//2 15//2
f 15//3 13//3 11//12
f 10//3 14//3 16//3
f 16//2 14//2 10//2
f 13//14 17//14 15//14
f 15//13 17//13 13//13
f 14//13 18//13 16//13
f 16//14 18//14 14//14
f 17//14 13//14 19//14
f 19//13 13//13 17//13
f 18//13 14//13 20//13
f 20//14 14//14 18//14
f 21//2 17//2 19//2
f 19//3 17//3 21//3
f 22//2 18//2 20//2
f 20//3 18//3 22//3
f 17//2 21//2 23//2
f 23//3 21//3 17//3
f 18//2 22//2 24//2
f 24//3 22//3 18//3
f 21//14 25//14 23//14
f 23//13 25//13 21//13
f 22//15 26//15 24//15
f 24//16 26//16 22//16
f 25//14 21//14 27//14
f 27//13 21//13 25//13
f 26//15 22//15 28//15
f 28//16 22//16 26//16
f 29//3 25//3 27//3
f 27//2 25//2 29//2
f 28//17 30//17 26//17
f 26//18 30//18 28//18
f 25//3 29//3 31//3
f 31//2 29//2 25//2
f 30//17 28//17 32//17
f 32//18 28//18 30//18
f 29//14 33//14 31//14
f 31//13 33//13 29//13
f 34//3 30//3 32//3
f 32//2 30//2 34//2
f 33//14 29//14 35//14
f 35//13 29//13 33//13
f 30//3 34//3 36//3
f 36//2 34//2 30//2
f 37//3 33//3 35//3
f 35//2 33//2 37//2
f 34//13 37//13 36//13
f 36//14 37//14 34//14
f 33//3 37//3 38//3
f 38//2 37//2 33//2
f 37//13 34//13 38//13
f 38//14 34//14 37//14
