# SSTK version 0.8.0
# 43
mtllib original-43.mtl
o Sash_Pull1/Sash_Pull/mesh371/mesh371-geometry#mesh371-geometry
v 0.061027 -0.685840 -0.058798
v -0.015171 -0.686262 -0.058798
v 0.057822 -0.686262 -0.058798
v -0.018376 -0.685840 -0.058798
v 0.057822 -0.686262 -0.060835
v 0.060580 -0.685951 -0.060835
v 0.064013 -0.684603 -0.058798
v -0.015171 -0.686262 -0.060835
v 0.063196 -0.685035 -0.060835
v -0.021363 -0.684603 -0.058798
v -0.018376 -0.685840 -0.060835
v 0.065543 -0.683561 -0.060835
v 0.066578 -0.682636 -0.058798
v -0.021363 -0.684603 -0.060835
v -0.023927 -0.682636 -0.058798
v 0.067502 -0.681601 -0.060835
v -0.023927 -0.682636 -0.060835
v 0.068545 -0.680071 -0.058798
v -0.025895 -0.680071 -0.058798
v -0.025895 -0.680071 -0.060835
v 0.068977 -0.679254 -0.060835
v 0.069782 -0.677085 -0.058798
v -0.027132 -0.677085 -0.058798
v -0.027132 -0.677085 -0.060835
v 0.069894 -0.676637 -0.060835
v 0.070204 -0.673880 -0.058798
v -0.027554 -0.673880 -0.058798
v -0.027554 -0.673880 -0.060835
v 0.070204 -0.673880 -0.060835
v 0.069782 -0.670675 -0.058798
v -0.027132 -0.670675 -0.058798
v -0.027132 -0.670675 -0.060835
v -0.027004 -0.673880 -0.065289
v 0.069782 -0.670675 -0.060835
v 0.068545 -0.667688 -0.058798
v -0.025388 -0.673880 -0.069475
v 0.069655 -0.673880 -0.065289
v 0.068545 -0.667688 -0.060835
v -0.025895 -0.667688 -0.058798
v -0.025895 -0.667688 -0.060835
v -0.015171 -0.663663 -0.069475
v -0.022802 -0.673880 -0.073142
v 0.068038 -0.673880 -0.069475
v 0.066578 -0.665124 -0.058798
v -0.023927 -0.665124 -0.060835
v -0.015171 -0.662047 -0.065289
v -0.019402 -0.673880 -0.076071
v 0.066578 -0.665124 -0.060835
v 0.065452 -0.673880 -0.073142
v 0.057822 -0.662047 -0.065289
v -0.023927 -0.665124 -0.058798
v -0.015171 -0.666249 -0.073142
v -0.015391 -0.673880 -0.078085
v 0.062052 -0.673880 -0.076071
v 0.057822 -0.663663 -0.069475
v 0.064013 -0.663156 -0.060835
v 0.064013 -0.663156 -0.058798
v -0.021363 -0.663156 -0.060835
v 0.057822 -0.661497 -0.060835
v -0.015171 -0.669649 -0.076071
v 0.058042 -0.673880 -0.078085
v 0.057822 -0.669649 -0.076071
v 0.057822 -0.666249 -0.073142
v -0.021363 -0.663156 -0.058798
v -0.018376 -0.661919 -0.060835
v -0.015171 -0.661497 -0.060835
v 0.061027 -0.661919 -0.060835
v 0.061027 -0.661919 -0.058798
v -0.015171 -0.661497 -0.058798
v -0.018376 -0.661919 -0.058798
v 0.057822 -0.661497 -0.058798
vn 0 0 1
vn 0 0 -1
vn -0.06541700091410448 -0.9978580139435691 0
vn 0.05611900488412139 -0.9984240868943497 0
vn 0.08099801942478536 -0.9966782390214107 0.008474002032218243
vn -0.08099801942478536 0.9966782390214107 -0.008474002032218243
vn -0.05611900488412139 0.9984240868943497 0
vn 0.06541700091410448 0.9978580139435691 0
vn 0.28296390857069736 -0.9590026901338139 0.01566099493972955
vn 0.19201306082840316 -0.9813913108979466 0.0014420004568155048
vn -0.19201306082840316 0.9813913108979466 -0.0014420004568155048
vn -0.28296390857069736 0.9590026901338139 -0.01566099493972955
vn -0.2588229416413862 -0.9659247822062024 0
vn 0.2588229416413862 0.9659247822062024 0
vn 0.4169559367757253 -0.90891686217822 -0.004228999358744392
vn -0.4169559367757253 0.90891686217822 0.004228999358744392
vn 0.5107251864530316 -0.8595133137868805 0.019916007270837494
vn -0.5107251864530316 0.8595133137868805 -0.019916007270837494
vn 0.6185899898031627 -0.7856819870488183 -0.007087999883161586
vn -0.6185899898031627 0.7856819870488183 0.007087999883161586
vn -0.4999958758010398 -0.8660277848787249 0
vn 0.4999958758010398 0.8660277848787249 0
vn 0.7069499843958467 -0.7069409843960454 0.021357999528575405
vn -0.7069499843958467 0.7069409843960454 -0.021357999528575405
vn 0.7856846099002239 -0.6185866928659066 -0.007084996482232949
vn -0.7856846099002239 0.6185866928659066 0.007084996482232949
vn -0.7071117811673225 -0.7071017811704173 0
vn 0.7071117811673225 0.7071017811704173 0
vn 0.8595097763598828 -0.5107308671103993 0.01992299481613692
vn -0.8595097763598828 0.5107308671103993 -0.01992299481613692
vn 0.908920338525171 -0.41694815529132706 -0.0042490015825304055
vn -0.908920338525171 0.41694815529132706 0.0042490015825304055
vn -0.8660253028382762 -0.5000001748438417 0
vn 0.8660253028382762 0.5000001748438417 0
vn 0.9590095319291696 -0.28294215693815505 0.015635008672194427
vn -0.9590095319291696 0.28294215693815505 -0.015635008672194427
vn -0.965925282211533 -0.2588210756189882 0
vn 0.965925282211533 0.2588210756189882 0
vn 0.9813991832768053 -0.1919730358510638 0.0014130002638784878
vn -0.9813991832768053 0.1919730358510638 -0.0014130002638784878
vn 0.9992565866825799 -0.03759898444812328 0.008519996475917179
vn -0.9992565866825799 0.03759898444812328 -0.008519996475917179
vn -1 0 0
vn 1 0 0
vn 0.9979262754396652 0.04976001373436281 -0.04083001126957461
vn -0.9979262754396652 -0.04976001373436281 0.04083001126957461
vn -0.998213101608616 0.04358900443694679 -0.040873004160483735
vn 0.998213101608616 -0.04358900443694679 0.040873004160483735
vn -0.9609636844325506 0.2562809158408208 -0.10425396576441061
vn 0.9609636844325506 -0.2562809158408208 0.10425396576441061
vn 0 -1 0
vn 0 1 0
vn 0.9609636844325506 0.2562809158408208 -0.10425396576441061
vn -0.9609636844325506 -0.2562809158408208 0.10425396576441061
vn -0.965925282211533 0.2588210756189882 0
vn 0.965925282211533 -0.2588210756189882 0
vn -0.7894060135047635 0.46711800799122144 -0.39829500681383173
vn 0.7894060135047635 -0.46711800799122144 0.39829500681383173
vn 0.7894060135047635 0.46711800799122144 -0.39829500681383173
vn -0.7894060135047635 -0.46711800799122144 0.39829500681383173
vn 0.8475502266629302 0.4847051296261644 -0.21614705780486376
vn -0.8475502266629302 -0.4847051296261644 0.21614705780486376
vn -0.8475502266629302 0.4847051296261644 -0.21614705780486376
vn 0.8475502266629302 -0.4847051296261644 0.21614705780486376
vn -0.3535460693867816 0.8240981617371091 -0.442569086858396
vn -0.6606449471199987 0.6606449471199988 -0.3565059714641935
vn 0.6606449471199987 -0.6606449471199988 0.3565059714641935
vn 0.3535460693867816 -0.8240981617371091 0.442569086858396
vn -0.8660253028382762 0.5000001748438417 0
vn 0.8660253028382762 -0.5000001748438417 0
vn -0.6564112180749404 0.6564032180722826 -0.371832123531204
vn 0.6564112180749404 -0.6564032180722826 0.371832123531204
vn -0.3390738822956082 0.867886698726203 -0.3630448739744393
vn 0.3390738822956082 -0.867886698726203 0.3630448739744393
vn -0.5934108900095214 0.5934108900095215 -0.5438078992035835
vn 0.5934108900095214 -0.5934108900095215 0.5438078992035835
vn 0.6564112180749404 0.6564032180722826 -0.371832123531204
vn -0.6564112180749404 -0.6564032180722826 0.371832123531204
vn 0.6606449471199987 0.6606449471199988 -0.3565059714641935
vn 0.3390738822956082 0.867886698726203 -0.3630448739744393
vn -0.3390738822956082 -0.867886698726203 0.3630448739744393
vn -0.6606449471199987 -0.6606449471199988 0.3565059714641935
vn -0.31252213823107255 0.7020363105163453 -0.6399022830339616
vn 0.31252213823107255 -0.7020363105163453 0.6399022830339616
vn -0.4822090180910361 0.4822090180910363 -0.7314020274400103
vn 0.4822090180910361 -0.4822090180910363 0.7314020274400103
vn 0.5934108900095214 0.5934108900095215 -0.5438078992035835
vn 0.3535460693867816 0.8240981617371091 -0.442569086858396
vn -0.3535460693867816 -0.8240981617371091 0.442569086858396
vn -0.5934108900095214 -0.5934108900095215 0.5438078992035835
vn 0.4847008451948147 0.8475537293057905 -0.21614293096763312
vn -0.4847008451948147 -0.8475537293057905 0.21614293096763312
vn -0.7071117811673225 0.7071017811704173 0
vn 0.7071117811673225 -0.7071017811704173 0
vn -0.4847008451948147 0.8475537293057905 -0.21614293096763312
vn 0.4847008451948147 -0.8475537293057905 0.21614293096763312
vn 0.06529597517587882 0.9959846213481325 -0.06124597671560064
vn -0.06529597517587882 -0.9959846213481325 0.06124597671560064
vn -0.24894911778607082 0.530838251157154 -0.810083383277272
vn 0.24894911778607082 -0.530838251157154 0.810083383277272
vn -0.20934707600158564 0.4291301557918694 -0.8786473189850591
vn 0.20934707600158564 -0.4291301557918694 0.8786473189850591
vn 0.24894911778607082 0.530838251157154 -0.810083383277272
vn 0.4822090180910361 0.4822090180910363 -0.7314020274400103
vn -0.4822090180910361 -0.4822090180910363 0.7314020274400103
vn -0.24894911778607082 -0.530838251157154 0.810083383277272
vn 0.31252213823107255 0.7020363105163453 -0.6399022830339616
vn -0.31252213823107255 -0.7020363105163453 0.6399022830339616
vn -0.2562839325373642 0.9609637470417024 -0.10424597255891907
vn 0.2562839325373642 -0.9609637470417024 0.10424597255891907
vn -0.06529597517587882 0.9959846213481325 -0.06124597671560064
vn 0.06529597517587882 -0.9959846213481325 0.06124597671560064
vn 0.2562839325373642 0.9609637470417024 -0.10424597255891907
vn -0.2562839325373642 -0.9609637470417024 0.10424597255891907
vn 0.20934707600158564 0.4291301557918694 -0.8786473189850591
vn -0.20934707600158564 -0.4291301557918694 0.8786473189850591
vn -0.4999958758010398 0.8660277848787249 0
vn 0.4999958758010398 -0.8660277848787249 0
vn -0.06541700091410448 0.9978580139435691 0
vn 0.06541700091410448 -0.9978580139435691 0
vn -0.2588229416413862 0.9659247822062024 0
vn 0.2588229416413862 -0.9659247822062024 0
usemtl material_0_0
f 1//1 2//1 3//1
f 2//1 1//1 4//1
f 3//2 2//2 1//2
f 4//2 1//2 2//2
f 2//3 5//4 3//5
f 3//6 5//7 2//8
f 1//9 3//5 6//10
f 6//11 3//6 1//12
f 4//1 1//1 7//1
f 7//2 1//2 4//2
f 4//13 8//3 2//3
f 2//8 8//8 4//14
f 5//4 2//3 8//3
f 8//8 2//8 5//7
f 6//10 3//5 5//4
f 5//7 3//6 6//11
f 9//15 1//9 6//10
f 6//11 1//12 9//16
f 7//17 1//9 9//15
f 9//16 1//12 7//18
f 4//1 7//1 10//1
f 10//2 7//2 4//2
f 8//3 4//13 11//13
f 11//14 4//14 8//8
f 11//2 5//2 8//2
f 8//1 5//1 11//1
f 5//2 11//2 6//2
f 6//1 11//1 5//1
f 6//2 11//2 9//2
f 9//1 11//1 6//1
f 12//19 7//17 9//15
f 9//16 7//18 12//20
f 10//1 7//1 13//1
f 13//2 7//2 10//2
f 10//21 11//13 4//13
f 4//14 11//14 10//22
f 9//2 11//2 14//2
f 14//1 11//1 9//1
f 13//23 7//17 12//19
f 12//20 7//18 13//24
f 9//2 14//2 12//2
f 12//1 14//1 9//1
f 10//1 13//1 15//1
f 15//2 13//2 10//2
f 11//13 10//21 14//21
f 14//22 10//22 11//14
f 12//19 16//25 13//23
f 13//24 16//26 12//20
f 12//2 14//2 17//2
f 17//1 14//1 12//1
f 15//1 13//1 18//1
f 18//2 13//2 15//2
f 15//27 14//21 10//21
f 10//22 14//22 15//28
f 12//2 17//2 16//2
f 16//1 17//1 12//1
f 16//25 18//29 13//23
f 13//24 18//30 16//26
f 14//21 15//27 17//27
f 17//28 15//28 14//22
f 15//1 18//1 19//1
f 19//2 18//2 15//2
f 16//2 17//2 20//2
f 20//1 17//1 16//1
f 16//25 21//31 18//29
f 18//30 21//32 16//26
f 19//33 17//27 15//27
f 15//28 17//28 19//34
f 19//1 18//1 22//1
f 22//2 18//2 19//2
f 17//27 19//33 20//33
f 20//34 19//34 17//28
f 16//2 20//2 21//2
f 21//1 20//1 16//1
f 21//31 22//35 18//29
f 18//30 22//36 21//32
f 19//1 22//1 23//1
f 23//2 22//2 19//2
f 23//37 20//33 19//33
f 19//34 20//34 23//38
f 21//2 20//2 24//2
f 24//1 20//1 21//1
f 21//31 25//39 22//35
f 22//36 25//40 21//32
f 23//1 22//1 26//1
f 26//2 22//2 23//2
f 20//33 23//37 24//37
f 24//38 23//38 20//34
f 21//2 24//2 25//2
f 25//1 24//1 21//1
f 25//39 26//41 22//35
f 22//36 26//42 25//40
f 23//1 26//1 27//1
f 27//2 26//2 23//2
f 27//43 24//37 23//37
f 23//38 24//38 27//44
f 25//2 24//2 28//2
f 28//1 24//1 25//1
f 29//45 26//41 25//39
f 25//40 26//42 29//46
f 27//1 26//1 30//1
f 30//2 26//2 27//2
f 24//37 27//43 28//47
f 28//48 27//44 24//38
f 25//2 28//2 29//2
f 29//1 28//1 25//1
f 29//45 30//38 26//41
f 26//42 30//37 29//46
f 27//1 30//1 31//1
f 31//2 30//2 27//2
f 27//43 32//49 28//47
f 28//48 32//50 27//44
f 33//51 29//51 28//51
f 28//52 29//52 33//52
f 30//38 29//45 34//53
f 34//54 29//46 30//37
f 31//1 30//1 35//1
f 35//2 30//2 31//2
f 32//49 27//43 31//55
f 31//56 27//44 32//50
f 33//57 28//47 32//49
f 32//50 28//48 33//58
f 29//51 33//51 36//51
f 36//52 33//52 29//52
f 37//59 34//53 29//45
f 29//46 34//54 37//60
f 38//61 30//38 34//53
f 34//54 30//37 38//62
f 30//38 38//61 35//34
f 35//33 38//62 30//37
f 31//1 35//1 39//1
f 39//2 35//2 31//2
f 31//55 40//63 32//49
f 32//50 40//64 31//56
f 33//57 32//49 40//63
f 40//64 32//50 33//58
f 33//57 41//65 36//66
f 36//67 41//68 33//58
f 29//51 36//51 42//51
f 42//52 36//52 29//52
f 37//59 38//61 34//53
f 34//54 38//62 37//60
f 29//51 43//51 37//51
f 37//52 43//52 29//52
f 38//61 44//28 35//34
f 35//33 44//27 38//62
f 39//1 35//1 44//1
f 44//2 35//2 39//2
f 40//63 31//55 39//69
f 39//70 31//56 40//64
f 33//57 40//63 45//71
f 45//72 40//64 33//58
f 41//65 33//57 46//73
f 46//74 33//58 41//68
f 41//65 42//75 36//66
f 36//67 42//76 41//68
f 29//51 42//51 47//51
f 47//52 42//52 29//52
f 37//59 48//77 38//61
f 38//62 48//78 37//60
f 29//51 49//51 43//51
f 43//52 49//52 29//52
f 43//79 50//80 37//59
f 37//60 50//81 43//82
f 44//28 38//61 48//77
f 48//78 38//62 44//27
f 39//1 44//1 51//1
f 51//2 44//2 39//2
f 39//69 45//71 40//63
f 40//64 45//72 39//70
f 46//73 33//57 45//71
f 45//72 33//58 46//74
f 50//80 41//65 46//73
f 46//74 41//68 50//81
f 42//75 41//65 52//83
f 52//84 41//68 42//76
f 52//83 47//85 42//75
f 42//76 47//86 52//84
f 29//51 47//51 53//51
f 53//52 47//52 29//52
f 50//80 48//77 37//59
f 37//60 48//78 50//81
f 29//51 54//51 49//51
f 49//52 54//52 29//52
f 49//87 55//88 43//79
f 43//82 55//89 49//90
f 50//80 43//79 55//88
f 55//89 43//82 50//81
f 56//91 44//28 48//77
f 48//78 44//27 56//92
f 51//1 44//1 57//1
f 57//2 44//2 51//2
f 45//71 39//69 51//93
f 51//94 39//70 45//72
f 46//73 45//71 58//95
f 58//96 45//72 46//74
f 41//65 50//80 55//88
f 55//89 50//81 41//68
f 46//73 59//97 50//80
f 50//81 59//98 46//74
f 55//88 52//83 41//65
f 41//68 52//84 55//89
f 47//85 52//83 60//99
f 60//100 52//84 47//86
f 60//99 53//101 47//85
f 47//86 53//102 60//100
f 29//51 53//51 61//51
f 61//52 53//52 29//52
f 48//77 50//80 56//91
f 56//92 50//81 48//78
f 29//51 61//51 54//51
f 54//52 61//52 29//52
f 62//103 49//87 54//104
f 54//105 49//90 62//106
f 55//88 49//87 63//107
f 63//108 49//90 55//89
f 44//28 56//91 57//22
f 57//21 56//92 44//27
f 51//1 57//1 64//1
f 64//2 57//2 51//2
f 51//93 58//95 45//71
f 45//72 58//96 51//94
f 46//73 58//95 65//109
f 65//110 58//96 46//74
f 59//97 46//73 66//111
f 66//112 46//74 59//98
f 67//113 50//80 59//97
f 59//98 50//81 67//114
f 52//83 55//88 63//107
f 63//108 55//89 52//84
f 52//83 62//103 60//99
f 60//100 62//106 52//84
f 60//99 61//115 53//101
f 53//102 61//116 60//100
f 56//91 50//80 67//113
f 67//114 50//81 56//92
f 62//103 54//104 61//115
f 61//116 54//105 62//106
f 49//87 62//103 63//107
f 63//108 62//106 49//90
f 67//113 57//22 56//91
f 56//92 57//21 67//114
f 64//1 57//1 68//1
f 68//2 57//2 64//2
f 58//95 51//93 64//117
f 64//118 51//94 58//96
f 64//117 65//109 58//95
f 58//96 65//110 64//118
f 46//73 65//109 66//111
f 66//112 65//110 46//74
f 69//119 59//97 66//111
f 66//112 59//98 69//120
f 59//97 68//14 67//113
f 67//114 68//13 59//98
f 62//103 52//83 63//107
f 63//108 52//84 62//106
f 61//115 60//99 62//103
f 62//106 60//100 61//116
f 57//22 67//113 68//14
f 68//13 67//114 57//21
f 64//1 68//1 70//1
f 70//2 68//2 64//2
f 65//109 64//117 70//121
f 70//122 64//118 65//110
f 70//121 66//111 65//109
f 65//110 66//112 70//122
f 59//97 69//119 71//8
f 71//3 69//120 59//98
f 66//111 70//121 69//119
f 69//120 70//122 66//112
f 68//14 59//97 71//8
f 71//3 59//98 68//13
f 70//1 68//1 71//1
f 71//2 68//2 70//2
f 70//1 71//1 69//1
f 69//2 71//2 70//2
