# SSTK version 0.8.0
# 54
mtllib original-54.mtl
o SCREEN_CR1/SCREEN_CR/mesh412/mesh412-geometry#mesh412-geometry
v 0.561912 -0.021504 0.028643
v 0.556228 -0.629562 0.028643
v 0.561912 -0.629562 0.028643
v 0.556228 -0.021504 0.028643
v 0.561912 -0.629562 0.031033
v 0.556228 -0.021504 0.020353
v 0.561912 -0.021504 0.031033
v 0.556228 -0.629562 0.020353
v 0.577246 -0.021504 0.031033
v 0.563984 -0.629562 0.020353
v 0.577246 -0.629562 0.031033
v 0.563984 -0.021504 0.020353
v 0.577246 -0.629562 0.017817
v 0.563984 -0.021504 0.017817
v 0.577246 -0.021504 0.017817
v 0.563984 -0.629562 0.017817
vn 0 0 1
vn 0 0 -1
vn -1 0 0
vn 1 0 0
usemtl material_0_0
f 1//1 2//1 3//1
f 2//1 1//1 4//1
f 3//2 2//2 1//2
f 4//2 1//2 2//2
f 5//3 1//3 3//3
f 3//4 1//4 5//4
f 6//3 2//3 4//3
f 4//4 2//4 6//4
f 1//3 5//3 7//3
f 7//4 5//4 1//4
f 2//3 6//3 8//3
f 8//4 6//4 2//4
f 5//1 9//1 7//1
f 7//2 9//2 5//2
f 6//2 10//2 8//2
f 8//1 10//1 6//1
f 9//1 5//1 11//1
f 11//2 5//2 9//2
f 10//2 6//2 12//2
f 12//1 6//1 10//1
f 13//4 9//4 11//4
f 11//3 9//3 13//3
f 14//3 10//3 12//3
f 12//4 10//4 14//4
f 9//4 13//4 15//4
f 15//3 13//3 9//3
f 10//3 14//3 16//3
f 16//4 14//4 10//4
f 13//2 14//2 15//2
f 15//1 14//1 13//1
f 14//2 13//2 16//2
f 16//1 13//1 14//1
