# SSTK version 0.8.0
# 37
mtllib original-37.mtl
o BF_CL1/BF_CL/mesh318/mesh318-geometry#mesh318-geometry
v -0.488486 -0.032641 -0.045922
v -0.504290 -0.602190 -0.045922
v -0.488486 -0.602190 -0.045922
v -0.504290 -0.032641 -0.045922
v -0.488486 -0.602190 -0.050889
v -0.504290 -0.032641 -0.017409
v -0.488486 -0.032641 -0.050889
v -0.504290 -0.602190 -0.017409
v -0.490204 -0.602190 -0.052607
v -0.488733 -0.602190 -0.017409
v -0.490204 -0.032641 -0.052607
v -0.488733 -0.032641 -0.017409
v -0.492396 -0.032641 -0.052607
v -0.488729 -0.032641 -0.016583
v -0.492396 -0.602190 -0.052607
v -0.488729 -0.602190 -0.016583
v -0.493731 -0.602190 -0.057586
v -0.493332 -0.032641 -0.008611
v -0.493731 -0.032641 -0.057586
v -0.493332 -0.602190 -0.008611
v -0.495310 -0.032641 -0.058798
v -0.508364 -0.602190 -0.008611
v -0.495310 -0.602190 -0.058798
v -0.508364 -0.032641 -0.008611
v -0.531663 -0.032641 -0.058798
v -0.508364 -0.032641 -0.008290
v -0.531663 -0.602190 -0.058798
v -0.508364 -0.602190 -0.008290
v -0.531663 -0.602190 -0.056843
v -0.531663 -0.602190 -0.008290
v -0.531663 -0.032641 -0.056843
v -0.531663 -0.032641 -0.008290
v -0.539809 -0.032641 -0.056843
v -0.531663 -0.032641 -0.010897
v -0.539809 -0.602190 -0.056843
v -0.531663 -0.602190 -0.010897
v -0.539809 -0.602190 -0.010897
v -0.539809 -0.032641 -0.010897
vn 0 0 1
vn 0 0 -1
vn 0.9238797538373538 0 -0.38268289803626016
vn 1 0 0
vn -1 0 0
vn -0.9238797538373538 0 0.38268289803626016
vn 0.38268289803626016 0 -0.9238797538373538
vn -0.38268289803626016 0 0.9238797538373538
vn 0.9999910746463365 0 -0.00422500031538361
vn -0.9999910746463365 0 0.00422500031538361
vn 0.8314698396094833 0 -0.5555698928305779
vn 0.965925849201117 0 -0.2588189595935754
vn -0.965925849201117 0 0.2588189595935754
vn -0.8314698396094833 0 0.5555698928305779
vn 0.8660253028382762 0 0.5000001748438417
vn -0.8660253028382762 0 -0.5000001748438417
vn 0.3214399841690811 0 -0.9469299533637009
vn -0.3214399841690811 0 0.9469299533637009
usemtl material_0_0
f 1//1 2//1 3//1
f 2//1 1//1 4//1
f 3//2 2//2 1//2
f 4//2 1//2 2//2
f 5//3 1//4 3//4
f 3//5 1//5 5//6
f 6//4 2//4 4//4
f 4//5 2//5 6//5
f 1//4 5//3 7//3
f 7//6 5//6 1//5
f 2//4 6//4 8//4
f 8//5 6//5 2//5
f 9//7 7//3 5//3
f 5//6 7//6 9//8
f 6//2 10//2 8//2
f 8//1 10//1 6//1
f 7//3 9//7 11//7
f 11//8 9//8 7//6
f 10//2 6//2 12//2
f 12//1 6//1 10//1
f 9//7 13//2 11//7
f 11//8 13//1 9//8
f 14//9 10//9 12//9
f 12//10 10//10 14//10
f 13//2 9//7 15//2
f 15//1 9//8 13//1
f 10//9 14//9 16//9
f 16//10 14//10 10//10
f 17//11 13//12 15//12
f 15//13 13//13 17//14
f 18//15 16//15 14//15
f 14//16 16//16 18//16
f 13//12 17//11 19//11
f 19//14 17//14 13//13
f 16//15 18//15 20//15
f 20//16 18//16 16//16
f 17//11 21//17 19//11
f 19//14 21//18 17//14
f 18//1 22//1 20//1
f 20//2 22//2 18//2
f 21//17 17//11 23//17
f 23//18 17//14 21//18
f 22//1 18//1 24//1
f 24//2 18//2 22//2
f 23//17 25//2 21//17
f 21//18 25//1 23//18
f 26//4 22//4 24//4
f 24//5 22//5 26//5
f 25//2 23//17 27//2
f 27//1 23//18 25//1
f 22//4 26//4 28//4
f 28//5 26//5 22//5
f 29//5 25//5 27//5
f 27//4 25//4 29//4
f 26//1 30//1 28//1
f 28//2 30//2 26//2
f 25//5 29//5 31//5
f 31//4 29//4 25//4
f 30//1 26//1 32//1
f 32//2 26//2 30//2
f 29//2 33//2 31//2
f 31//1 33//1 29//1
f 34//5 30//5 32//5
f 32//4 30//4 34//4
f 33//2 29//2 35//2
f 35//1 29//1 33//1
f 30//5 34//5 36//5
f 36//4 34//4 30//4
f 37//5 33//5 35//5
f 35//4 33//4 37//4
f 34//1 37//1 36//1
f 36//2 37//2 34//2
f 33//5 37//5 38//5
f 38//4 37//4 33//4
f 37//1 34//1 38//1
f 38//2 34//2 37//2
