# SSTK version 0.8.0
# 13
mtllib original-13.mtl
o BF2_BL1/BF2_BL/mesh99/mesh99-geometry#mesh99-geometry
v -0.443028 -0.692780 0.048793
v -0.532640 -0.692780 0.032758
v -0.532640 -0.692780 0.048793
v -0.443028 -0.692780 0.032758
v -0.532640 -0.603168 0.048793
v -0.540787 -0.700926 0.048793
v -0.443028 -0.694735 0.032758
v -0.532640 -0.603168 0.032758
v -0.540787 -0.603168 0.048793
v -0.443028 -0.700926 0.048793
v -0.534596 -0.694735 0.032758
v -0.534596 -0.603168 0.032758
v -0.443028 -0.700926 0.002814
v -0.540787 -0.603168 0.002814
v -0.534596 -0.694735 0.016460
v -0.540787 -0.700926 0.002814
v -0.443028 -0.694735 0.016460
v -0.530685 -0.690824 0.002814
v -0.534596 -0.603168 0.016460
v -0.443028 -0.689358 0.016460
v -0.443028 -0.690824 0.002814
v -0.530685 -0.603168 0.002814
v -0.529219 -0.689358 0.016460
v -0.443028 -0.690824 -0.006441
v -0.530685 -0.603168 -0.006441
v -0.529219 -0.603168 0.016460
v -0.529219 -0.689358 -0.006441
v -0.530685 -0.690824 -0.006441
v -0.443028 -0.689358 -0.006441
v -0.529219 -0.603168 -0.006441
vn 0 1 0
vn 0 -1 0
vn 1 0 0
vn -1 0 0
vn 0 0 1
vn 0 0 -1
usemtl material_0_0
f 1//1 2//1 3//1
f 2//1 1//1 4//1
f 3//2 2//2 1//2
f 4//2 1//2 2//2
f 2//3 5//3 3//3
f 3//4 5//4 2//4
f 6//5 1//5 3//5
f 3//6 1//6 6//6
f 4//6 7//6 2//6
f 2//5 7//5 4//5
f 5//3 2//3 8//3
f 8//4 2//4 5//4
f 9//5 3//5 5//5
f 5//6 3//6 9//6
f 1//5 6//5 10//5
f 10//6 6//6 1//6
f 6//5 3//5 9//5
f 9//6 3//6 6//6
f 11//6 2//6 7//6
f 7//5 2//5 11//5
f 2//6 12//6 8//6
f 8//5 12//5 2//5
f 6//2 13//2 10//2
f 10//1 13//1 6//1
f 14//4 6//4 9//4
f 9//3 6//3 14//3
f 2//6 11//6 12//6
f 12//5 11//5 2//5
f 7//1 15//1 11//1
f 11//2 15//2 7//2
f 13//2 6//2 16//2
f 16//1 6//1 13//1
f 6//4 14//4 16//4
f 16//3 14//3 6//3
f 15//3 12//3 11//3
f 11//4 12//4 15//4
f 15//1 7//1 17//1
f 17//2 7//2 15//2
f 16//6 18//6 13//6
f 13//5 18//5 16//5
f 18//6 16//6 14//6
f 14//5 16//5 18//5
f 12//3 15//3 19//3
f 19//4 15//4 12//4
f 20//5 15//5 17//5
f 17//6 15//6 20//6
f 21//6 13//6 18//6
f 18//5 13//5 21//5
f 18//6 14//6 22//6
f 22//5 14//5 18//5
f 15//5 23//5 19//5
f 19//6 23//6 15//6
f 15//5 20//5 23//5
f 23//6 20//6 15//6
f 18//2 24//2 21//2
f 21//1 24//1 18//1
f 25//4 18//4 22//4
f 22//3 18//3 25//3
f 19//5 23//5 26//5
f 26//6 23//6 19//6
f 20//1 27//1 23//1
f 23//2 27//2 20//2
f 24//2 18//2 28//2
f 28//1 18//1 24//1
f 18//4 25//4 28//4
f 28//3 25//3 18//3
f 27//3 26//3 23//3
f 23//4 26//4 27//4
f 27//1 20//1 29//1
f 29//2 20//2 27//2
f 28//6 27//6 24//6
f 24//5 27//5 28//5
f 27//6 28//6 25//6
f 25//5 28//5 27//5
f 26//3 27//3 30//3
f 30//4 27//4 26//4
f 29//6 24//6 27//6
f 27//5 24//5 29//5
f 27//6 25//6 30//6
f 30//5 25//5 27//5
