# SSTK version 0.8.0
# 35
mtllib original-35.mtl
o BF_BR1/BF_BR/mesh293/mesh293-geometry#mesh293-geometry
v 0.484701 -0.650343 -0.052607
v 0.535047 -0.652536 -0.052607
v 0.484701 -0.652536 -0.052607
v 0.532854 -0.650343 -0.052607
v 0.484701 -0.653870 -0.057586
v 0.531136 -0.648625 -0.050889
v 0.535047 -0.602190 -0.052607
v 0.536381 -0.653870 -0.057586
v 0.484701 -0.648625 -0.050889
v 0.532854 -0.602190 -0.052607
v 0.536381 -0.602190 -0.057586
v 0.537960 -0.655450 -0.058798
v 0.531136 -0.648625 -0.045922
v 0.531136 -0.602190 -0.050889
v 0.537960 -0.602190 -0.058798
v 0.484701 -0.655450 -0.058798
v 0.484701 -0.648625 -0.045922
v 0.574313 -0.691802 -0.058798
v 0.574313 -0.602190 -0.058798
v 0.484701 -0.664430 -0.045922
v 0.531136 -0.602190 -0.045922
v 0.484701 -0.691802 -0.058798
v 0.546941 -0.664430 -0.045922
v 0.546941 -0.602190 -0.045922
v 0.484701 -0.691802 -0.056843
v 0.574313 -0.602190 -0.056843
v 0.546941 -0.664430 -0.017409
v 0.574313 -0.691802 -0.056843
v 0.484701 -0.664430 -0.017409
v 0.582460 -0.699949 -0.056843
v 0.582460 -0.602190 -0.056843
v 0.546941 -0.602190 -0.017409
v 0.484701 -0.648872 -0.017409
v 0.484701 -0.699949 -0.056843
v 0.531383 -0.648872 -0.017409
v 0.484701 -0.699949 -0.010897
v 0.582460 -0.602190 -0.010897
v 0.531383 -0.602190 -0.017409
v 0.531380 -0.648869 -0.016583
v 0.582460 -0.699949 -0.010897
v 0.484701 -0.648869 -0.016583
v 0.574313 -0.691802 -0.010897
v 0.531380 -0.602190 -0.016583
v 0.535982 -0.653471 -0.008611
v 0.484701 -0.691802 -0.010897
v 0.574313 -0.602190 -0.010897
v 0.484701 -0.653471 -0.008611
v 0.484701 -0.691802 -0.008290
v 0.574313 -0.602190 -0.008290
v 0.535982 -0.602190 -0.008611
v 0.484701 -0.668503 -0.008611
v 0.574313 -0.691802 -0.008290
v 0.551014 -0.602190 -0.008611
v 0.551014 -0.668503 -0.008611
v 0.551014 -0.668503 -0.008290
v 0.484701 -0.668503 -0.008290
v 0.551014 -0.602190 -0.008290
vn 0 0.3826828980362604 -0.9238797538373537
vn 0 0 -1
vn -0.2705978904609137 0.2705978904609139 -0.9238796260099074
vn 0 0 1
vn 0 -0.3826828980362604 0.9238797538373537
vn 0.2705978904609137 -0.2705978904609139 0.9238796260099074
vn 0 0.9659258492011171 -0.2588189595935752
vn 0 0.8314698396094836 -0.5555698928305778
vn 0 -0.9659258492011171 0.2588189595935752
vn 0 -0.8314698396094836 0.5555698928305778
vn 0 0.9238797538373539 -0.38268289803625993
vn 0 -0.9238797538373539 0.38268289803625993
vn -0.9238797538373538 0 -0.38268289803626016
vn -0.38268289803626016 0 -0.9238797538373538
vn 0.38268289803626016 0 0.9238797538373538
vn 0.9238797538373538 0 0.38268289803626016
vn -0.8314698396094833 0 -0.5555698928305779
vn -0.965925849201117 0 -0.2588189595935754
vn 0.965925849201117 0 0.2588189595935754
vn 0.8314698396094833 0 0.5555698928305779
vn -0.22329906024765767 0.2232990602476579 -0.9488282560005398
vn 0.22329906024765767 -0.2232990602476579 0.9488282560005398
vn 0 1 0
vn 0 -1 0
vn -0.3214399841690811 0 -0.9469299533637009
vn 0.3214399841690811 0 0.9469299533637009
vn 0 0.3214399841690814 -0.9469299533637009
vn 0 -0.3214399841690814 0.9469299533637009
vn -1 0 0
vn 1 0 0
vn 0 0.9999910746463365 -0.004225000315383388
vn 0 -0.9999910746463365 0.004225000315383388
vn -0.9999910746463365 0 -0.00422500031538361
vn 0.9999910746463365 0 0.00422500031538361
vn 0 0.8660253028382761 0.500000174843842
vn 0 -0.8660253028382761 -0.500000174843842
vn -0.8660253028382762 0 0.5000001748438417
vn 0.8660253028382762 0 -0.5000001748438417
usemtl material_0_0
f 1//1 2//2 3//2
f 2//2 1//1 4//3
f 3//4 2//4 1//5
f 4//6 1//5 2//4
f 2//7 5//8 3//7
f 3//9 5//10 2//9
f 1//1 6//11 4//3
f 4//6 6//12 1//5
f 2//2 4//3 7//2
f 7//4 4//6 2//4
f 5//8 2//7 8//8
f 8//10 2//9 5//10
f 6//11 1//1 9//11
f 9//12 1//5 6//12
f 6//13 10//14 4//3
f 4//6 10//15 6//16
f 7//2 4//3 10//14
f 10//15 4//6 7//4
f 11//17 2//18 7//18
f 7//19 2//19 11//20
f 2//18 11//17 8//17
f 8//20 11//20 2//19
f 12//21 5//8 8//8
f 8//10 5//10 12//22
f 9//11 13//23 6//11
f 6//12 13//24 9//12
f 10//14 6//13 14//13
f 14//16 6//16 10//15
f 15//25 8//17 11//17
f 11//20 8//20 15//26
f 5//8 12//21 16//27
f 16//28 12//22 5//10
f 8//17 15//25 12//21
f 12//22 15//26 8//20
f 13//23 9//11 17//23
f 17//24 9//12 13//24
f 13//29 14//13 6//13
f 6//16 14//16 13//30
f 18//2 16//27 12//21
f 12//22 16//28 18//4
f 19//2 12//21 15//25
f 15//26 12//22 19//4
f 17//4 20//4 13//4
f 13//2 20//2 17//2
f 14//13 13//29 21//29
f 21//30 13//30 14//16
f 16//27 18//2 22//2
f 22//4 18//4 16//28
f 18//2 12//21 19//2
f 19//4 12//22 18//4
f 23//4 13//4 20//4
f 20//2 13//2 23//2
f 13//4 24//4 21//4
f 21//2 24//2 13//2
f 18//24 25//24 22//24
f 22//23 25//23 18//23
f 26//30 18//30 19//30
f 19//29 18//29 26//29
f 13//4 23//4 24//4
f 24//2 23//2 13//2
f 20//23 27//23 23//23
f 23//24 27//24 20//24
f 25//24 18//24 28//24
f 28//23 18//23 25//23
f 18//30 26//30 28//30
f 28//29 26//29 18//29
f 27//29 24//29 23//29
f 23//30 24//30 27//30
f 27//23 20//23 29//23
f 29//24 20//24 27//24
f 30//2 25//2 28//2
f 28//4 25//4 30//4
f 31//2 28//2 26//2
f 26//4 28//4 31//4
f 24//29 27//29 32//29
f 32//30 27//30 24//30
f 33//2 27//2 29//2
f 29//4 27//4 33//4
f 25//2 30//2 34//2
f 34//4 30//4 25//4
f 30//2 28//2 31//2
f 31//4 28//4 30//4
f 27//2 35//2 32//2
f 32//4 35//4 27//4
f 27//2 33//2 35//2
f 35//4 33//4 27//4
f 30//24 36//24 34//24
f 34//23 36//23 30//23
f 37//30 30//30 31//30
f 31//29 30//29 37//29
f 32//2 35//2 38//2
f 38//4 35//4 32//4
f 33//31 39//31 35//31
f 35//32 39//32 33//32
f 36//24 30//24 40//24
f 40//23 30//23 36//23
f 30//30 37//30 40//30
f 40//29 37//29 30//29
f 39//33 38//33 35//33
f 35//34 38//34 39//34
f 39//31 33//31 41//31
f 41//32 33//32 39//32
f 40//4 42//4 36//4
f 36//2 42//2 40//2
f 42//4 40//4 37//4
f 37//2 40//2 42//2
f 38//33 39//33 43//33
f 43//34 39//34 38//34
f 41//35 44//35 39//35
f 39//36 44//36 41//36
f 45//4 36//4 42//4
f 42//2 36//2 45//2
f 42//4 37//4 46//4
f 46//2 37//2 42//2
f 44//37 43//37 39//37
f 39//38 43//38 44//38
f 44//35 41//35 47//35
f 47//36 41//36 44//36
f 42//24 48//24 45//24
f 45//23 48//23 42//23
f 49//30 42//30 46//30
f 46//29 42//29 49//29
f 43//37 44//37 50//37
f 50//38 44//38 43//38
f 47//4 51//4 44//4
f 44//2 51//2 47//2
f 48//24 42//24 52//24
f 52//23 42//23 48//23
f 42//30 49//30 52//30
f 52//29 49//29 42//29
f 44//4 53//4 50//4
f 50//2 53//2 44//2
f 54//4 44//4 51//4
f 51//2 44//2 54//2
f 52//4 55//4 48//4
f 48//2 55//2 52//2
f 55//4 52//4 49//4
f 49//2 52//2 55//2
f 44//4 54//4 53//4
f 53//2 54//2 44//2
f 51//23 55//23 54//23
f 54//24 55//24 51//24
f 56//4 48//4 55//4
f 55//2 48//2 56//2
f 55//4 49//4 57//4
f 57//2 49//2 55//2
f 55//29 53//29 54//29
f 54//30 53//30 55//30
f 55//23 51//23 56//23
f 56//24 51//24 55//24
f 53//29 55//29 57//29
f 57//30 55//30 53//30
