# SSTK version 0.8.0
# 22
mtllib original-22.mtl
o TF_BL1/TF_BL/mesh183/mesh183-geometry#mesh183-geometry
v -0.442051 0.046217 0.004904
v -0.539809 0.046217 0.050851
v -0.539809 0.046217 0.004904
v -0.442051 0.046217 0.050851
v -0.539809 0.143976 0.004904
v -0.531663 0.054364 0.004904
v -0.442051 0.054364 0.050851
v -0.539809 0.143976 0.050851
v -0.442051 0.054364 0.004904
v -0.531663 0.054364 0.050851
v -0.531663 0.143976 0.004904
v -0.442051 0.054364 0.002949
v -0.531663 0.054364 0.053458
v -0.531663 0.143976 0.050851
v -0.531663 0.143976 0.002949
v -0.531663 0.054364 0.002949
v -0.442051 0.054364 0.053458
v -0.495310 0.090716 0.002949
v -0.442051 0.077663 0.053458
v -0.531663 0.143976 0.053458
v -0.442051 0.090716 0.002949
v -0.508364 0.077663 0.053458
v -0.495310 0.143976 0.002949
v -0.493731 0.092296 0.004161
v -0.508364 0.077663 0.053137
v -0.508364 0.143976 0.053458
v -0.442051 0.092296 0.004161
v -0.442051 0.077663 0.053137
v -0.493731 0.143976 0.004161
v -0.492396 0.093630 0.009141
v -0.442051 0.092695 0.053137
v -0.508364 0.143976 0.053137
v -0.492396 0.143976 0.009141
v -0.442051 0.093630 0.009141
v -0.493332 0.092695 0.053137
v -0.490204 0.095823 0.009141
v -0.488729 0.097297 0.045164
v -0.493332 0.143976 0.053137
v -0.442051 0.095823 0.009141
v -0.490204 0.143976 0.009141
v -0.442051 0.097297 0.045164
v -0.488486 0.097541 0.010859
v -0.488486 0.143976 0.010859
v -0.442051 0.097294 0.044338
v -0.488729 0.143976 0.045164
v -0.442051 0.097541 0.010859
v -0.488733 0.097294 0.044338
v -0.442051 0.097541 0.015825
v -0.488486 0.143976 0.015825
v -0.442051 0.081736 0.044338
v -0.488733 0.143976 0.044338
v -0.488486 0.097541 0.015825
v -0.504290 0.081736 0.044338
v -0.504290 0.143976 0.044338
v -0.504290 0.081736 0.015825
v -0.504290 0.143976 0.015825
v -0.442051 0.081736 0.015825
vn 0 -1 0
vn 0 1 0
vn -1 0 0
vn 1 0 0
vn 0 0 -1
vn 0 0 1
vn 0.22329906024765767 0.2232990602476579 -0.9488282560005398
vn -0.22329906024765767 -0.2232990602476579 0.9488282560005398
vn 0 0.3214399841690814 -0.9469299533637009
vn 0 -0.3214399841690814 0.9469299533637009
vn 0.3214399841690811 0 -0.9469299533637009
vn -0.3214399841690811 0 0.9469299533637009
vn 0 0.8314698396094836 -0.5555698928305778
vn 0 -0.8314698396094836 0.5555698928305778
vn 0.8314698396094833 0 -0.5555698928305779
vn -0.8314698396094833 0 0.5555698928305779
vn 0 0.9659258492011171 -0.2588189595935752
vn 0 -0.9659258492011171 0.2588189595935752
vn 0.965925849201117 0 -0.2588189595935754
vn -0.965925849201117 0 0.2588189595935754
vn 0.2705978904609137 0.2705978904609139 -0.9238796260099074
vn -0.2705978904609137 -0.2705978904609139 0.9238796260099074
vn 0 0.8660253028382761 0.500000174843842
vn 0 -0.8660253028382761 -0.500000174843842
vn 0 0.3826828980362604 -0.9238797538373537
vn 0 -0.3826828980362604 0.9238797538373537
vn 0.38268289803626016 0 -0.9238797538373538
vn -0.38268289803626016 0 0.9238797538373538
vn 0.8660253028382762 0 0.5000001748438417
vn -0.8660253028382762 0 -0.5000001748438417
vn 0 0.9238797538373539 -0.38268289803625993
vn 0 -0.9238797538373539 0.38268289803625993
vn 0.9238797538373538 0 -0.38268289803626016
vn -0.9238797538373538 0 0.38268289803626016
vn 0 0.9999910746463365 -0.004225000315383388
vn 0 -0.9999910746463365 0.004225000315383388
vn 0.9999910746463365 0 -0.00422500031538361
vn -0.9999910746463365 0 0.00422500031538361
usemtl material_0_0
f 1//1 2//1 3//1
f 2//1 1//1 4//1
f 3//2 2//2 1//2
f 4//2 1//2 2//2
f 2//3 5//3 3//3
f 3//4 5//4 2//4
f 3//5 6//5 1//5
f 1//6 6//6 3//6
f 7//6 2//6 4//6
f 4//5 2//5 7//5
f 5//3 2//3 8//3
f 8//4 2//4 5//4
f 6//5 3//5 5//5
f 5//6 3//6 6//6
f 9//5 1//5 6//5
f 6//6 1//6 9//6
f 2//6 7//6 10//6
f 10//5 7//5 2//5
f 2//6 10//6 8//6
f 8//5 10//5 2//5
f 6//5 5//5 11//5
f 11//6 5//6 6//6
f 6//1 12//1 9//1
f 9//2 12//2 6//2
f 7//1 13//1 10//1
f 10//2 13//2 7//2
f 8//6 10//6 14//6
f 14//5 10//5 8//5
f 15//3 6//3 11//3
f 11//4 6//4 15//4
f 12//1 6//1 16//1
f 16//2 6//2 12//2
f 13//1 7//1 17//1
f 17//2 7//2 13//2
f 13//3 14//3 10//3
f 10//4 14//4 13//4
f 6//3 15//3 16//3
f 16//4 15//4 6//4
f 16//5 18//7 12//5
f 12//6 18//8 16//6
f 19//6 13//6 17//6
f 17//5 13//5 19//5
f 14//3 13//3 20//3
f 20//4 13//4 14//4
f 18//7 16//5 15//5
f 15//6 16//6 18//8
f 21//9 12//5 18//7
f 18//8 12//6 21//10
f 13//6 19//6 22//6
f 22//5 19//5 13//5
f 13//6 22//6 20//6
f 20//5 22//5 13//5
f 18//7 15//5 23//11
f 23//12 15//6 18//8
f 24//13 21//9 18//7
f 18//8 21//10 24//14
f 19//2 25//2 22//2
f 22//1 25//1 19//1
f 20//6 22//6 26//6
f 26//5 22//5 20//5
f 23//11 24//15 18//7
f 18//8 24//16 23//12
f 21//9 24//13 27//13
f 27//14 24//14 21//10
f 25//2 19//2 28//2
f 28//1 19//1 25//1
f 25//4 26//4 22//4
f 22//3 26//3 25//3
f 24//15 23//11 29//15
f 29//16 23//12 24//16
f 30//17 27//13 24//13
f 24//14 27//14 30//18
f 31//6 25//6 28//6
f 28//5 25//5 31//5
f 26//4 25//4 32//4
f 32//3 25//3 26//3
f 33//19 24//15 29//15
f 29//16 24//16 33//20
f 27//13 30//17 34//17
f 34//18 30//18 27//14
f 24//15 33//19 30//19
f 30//20 33//20 24//16
f 25//6 31//6 35//6
f 35//5 31//5 25//5
f 25//6 35//6 32//6
f 32//5 35//5 25//5
f 30//5 36//21 34//5
f 34//6 36//22 30//6
f 36//21 30//5 33//5
f 33//6 30//6 36//22
f 31//23 37//23 35//23
f 35//24 37//24 31//24
f 32//6 35//6 38//6
f 38//5 35//5 32//5
f 39//25 34//5 36//21
f 36//22 34//6 39//26
f 36//21 33//5 40//27
f 40//28 33//6 36//22
f 37//23 31//23 41//23
f 41//24 31//24 37//24
f 37//29 38//29 35//29
f 35//30 38//30 37//30
f 42//31 39//25 36//21
f 36//22 39//26 42//32
f 43//33 36//21 40//27
f 40//28 36//22 43//34
f 44//35 37//35 41//35
f 41//36 37//36 44//36
f 38//29 37//29 45//29
f 45//30 37//30 38//30
f 39//25 42//31 46//31
f 46//32 42//32 39//26
f 36//21 43//33 42//33
f 42//34 43//34 36//22
f 37//35 44//35 47//35
f 47//36 44//36 37//36
f 47//37 45//37 37//37
f 37//38 45//38 47//38
f 42//31 48//2 46//31
f 46//32 48//1 42//32
f 49//4 42//33 43//33
f 43//34 42//34 49//3
f 44//5 50//5 47//5
f 47//6 50//6 44//6
f 45//37 47//37 51//37
f 51//38 47//38 45//38
f 48//2 42//31 52//2
f 52//1 42//32 48//1
f 42//33 49//4 52//4
f 52//3 49//3 42//34
f 53//5 47//5 50//5
f 50//6 47//6 53//6
f 47//5 54//5 51//5
f 51//6 54//6 47//6
f 55//6 48//6 52//6
f 52//5 48//5 55//5
f 56//6 52//6 49//6
f 49//5 52//5 56//5
f 47//5 53//5 54//5
f 54//6 53//6 47//6
f 57//2 53//2 50//2
f 50//1 53//1 57//1
f 48//6 55//6 57//6
f 57//5 55//5 48//5
f 55//6 52//6 56//6
f 56//5 52//5 55//5
f 55//4 54//4 53//4
f 53//3 54//3 55//3
f 53//2 57//2 55//2
f 55//1 57//1 53//1
f 54//4 55//4 56//4
f 56//3 55//3 54//3
