# SSTK version 0.8.0
# 45
mtllib original-45.mtl
o mesh372/mesh372-geometry#mesh372-geometry
v 0.061471 0.079068 -0.026973
v 0.053304 0.079983 -0.028847
v 0.053304 0.079068 -0.026973
v 0.054813 0.088180 -0.045654
v 0.053304 0.074574 -0.029165
v 0.058426 0.086116 -0.041423
v 0.053157 0.080470 -0.029846
v 0.053304 0.075488 -0.031040
v 0.061471 0.074574 -0.029165
v 0.060697 0.083713 -0.036495
v 0.058426 0.081621 -0.043615
v 0.052728 0.080924 -0.030776
v 0.061471 0.081133 -0.031207
v 0.060697 0.079218 -0.038687
v 0.054813 0.083685 -0.047847
v 0.052046 0.081313 -0.031576
v 0.053157 0.075975 -0.032038
v 0.061471 0.076639 -0.033399
v 0.050105 0.085269 -0.051094
v 0.051157 0.081613 -0.032189
v 0.052728 0.076429 -0.032969
v 0.050105 0.089764 -0.048901
v 0.050122 0.077306 -0.034766
v 0.050122 0.081800 -0.032574
v 0.051157 0.077118 -0.034381
v 0.052046 0.076819 -0.033768
v 0.044622 0.086264 -0.053135
v 0.049011 0.077370 -0.034898
v 0.044622 0.090759 -0.050942
v 0.049011 0.081865 -0.032706
v 0.038739 0.086604 -0.053831
v 0.038739 0.091099 -0.051639
v 0.003964 0.086604 -0.053831
v -0.006361 0.077370 -0.034898
v 0.003964 0.091099 -0.051639
v -0.001933 0.086264 -0.053133
v -0.006361 0.081865 -0.032706
v -0.001933 0.090759 -0.050941
v -0.007472 0.081800 -0.032574
v -0.007429 0.085266 -0.051087
v -0.007429 0.089761 -0.048895
v -0.007472 0.077306 -0.034766
v -0.008507 0.081613 -0.032189
v -0.008507 0.077118 -0.034381
v -0.012148 0.088173 -0.045640
v -0.009396 0.081313 -0.031576
v -0.009396 0.076819 -0.033768
v -0.012148 0.083679 -0.047833
v -0.010507 0.080470 -0.029846
v -0.010078 0.080924 -0.030776
v -0.010078 0.076429 -0.032969
v -0.010507 0.075975 -0.032038
v -0.015769 0.081610 -0.043592
v -0.010653 0.079983 -0.028847
v -0.010653 0.075488 -0.031040
v -0.015769 0.086105 -0.041399
v -0.010653 0.074574 -0.029165
v -0.010653 0.079068 -0.026973
v -0.018045 0.079201 -0.038652
v -0.018045 0.083696 -0.036460
v -0.018821 0.074574 -0.029165
v -0.018821 0.076616 -0.033352
v -0.018821 0.081111 -0.031160
v -0.018821 0.079068 -0.026973
vn 0 0.8987940952375755 0.4383710464504564
vn 0 -0.8987940952375755 -0.4383710464504564
vn -0.9978588285229643 -0.02867199507286144 0.05878498989809426
vn -1 0 0
vn 1 0 0
vn 0.9978588285229643 0.02867199507286144 -0.05878498989809426
vn 0 -0.4383758736074865 0.8987917408604025
vn 0 0.4383758736074865 -0.8987917408604025
vn 0.8660254904151629 0.21918787102594936 -0.4493957355675378
vn 0.7071078420218726 0.3099779307464435 -0.6355408580109727
vn -0.8660254904151629 -0.21918787102594936 0.4493957355675378
vn -0.7071078420218726 -0.3099779307464435 0.6355408580109727
vn -0.965922939093731 -0.11346499284546514 0.23263398533126448
vn 0.965922939093731 0.11346499284546514 -0.23263398533126448
vn 0 -0.8987946814110467 -0.4383698446143567
vn 0 0.8987946814110467 0.4383698446143567
vn 0.9978589744493224 0.02867099926586475 -0.05878299849483194
vn -0.9978589744493224 -0.02867099926586475 0.05878299849483194
vn 0.9659257103667361 0.11345996597897763 -0.23262493024730876
vn -0.9659257103667361 -0.11345996597897763 0.23262493024730876
vn -0.8660246012252307 -0.21918815216824933 0.4493973119876758
vn 0.8660246012252307 0.21918815216824933 -0.4493973119876758
vn 0.49999709076998006 0.37964506892115185 -0.7783781413075588
vn -0.49999709076998006 -0.37964506892115185 0.7783781413075588
vn -0.7071168138677869 -0.3099739184065063 0.635532832710621
vn 0.7071168138677869 0.3099739184065063 -0.635532832710621
vn -0.4999978407724629 -0.3796448790996399 0.7783777521205846
vn 0.4999978407724629 0.3796448790996399 -0.7783777521205846
vn 0.2588178338734268 0.4234387282087413 -0.8681664427527888
vn -0.2588178338734268 -0.4234387282087413 0.8681664427527888
vn -0.2588150348319768 -0.42343905698749096 0.8681671168401089
vn 0.2588150348319768 0.42343905698749096 -0.8681671168401089
vn -0.06540701241729356 -0.4374370830459073 0.8968671702671093
vn 0.06540701241729356 0.4374370830459073 -0.8968671702671093
vn 0.06540499236207085 0.437437948916437 -0.8968668952647869
vn -0.06540499236207085 -0.437437948916437 0.8968668952647869
vn 0.06540701241729356 -0.4374370830459073 0.8968671702671093
vn -0.06540701241729356 0.4374370830459073 -0.8968671702671093
vn -0.06540399663990247 0.43743797752684344 -0.8968669539239098
vn 0.06540399663990247 -0.43743797752684344 0.8968669539239098
vn -0.25881909015433996 0.4234341474946307 -0.8681683024086833
vn 0.25881909015433996 -0.4234341474946307 0.8681683024086833
vn 0.2588150348319768 -0.42343905698749096 0.8681671168401089
vn -0.2588150348319768 0.42343905698749096 -0.8681671168401089
vn -0.49999780257665666 0.37963685010098897 -0.7783816926572169
vn 0.49999780257665666 -0.37963685010098897 0.7783816926572169
vn 0.4999978407724629 -0.3796448790996399 0.7783777521205846
vn -0.4999978407724629 0.3796448790996399 -0.7783777521205846
vn -0.7071071007899927 0.3099750441833812 -0.6355430905893652
vn 0.7071071007899927 -0.3099750441833812 0.6355430905893652
vn 0.7071168138677869 -0.3099739184065063 0.635532832710621
vn -0.7071168138677869 0.3099739184065063 -0.635532832710621
vn -0.866025870058024 0.21918596711246333 -0.4493959325708417
vn 0.866025870058024 -0.21918596711246333 0.4493959325708417
vn 0.8660246012252307 -0.21918815216824933 0.4493973119876758
vn -0.8660246012252307 0.21918815216824933 -0.4493973119876758
vn 0.9978588285229643 -0.02867199507286144 0.05878498989809426
vn 0.965922939093731 -0.11346499284546514 0.23263398533126448
vn -0.9978588285229643 0.02867199507286144 -0.05878498989809426
vn -0.965922939093731 0.11346499284546514 -0.23263398533126448
vn -0.9659258144451859 0.1134569782048599 -0.23262595531244193
vn 0.9659258144451859 -0.1134569782048599 0.23262595531244193
vn -0.997858944400798 0.028669998402550752 -0.05878399672464396
vn 0.997858944400798 -0.028669998402550752 0.05878399672464396
usemtl material_0_0
f 1//1 2//1 3//1
f 2//1 1//1 4//1
f 3//2 2//2 1//2
f 4//2 1//2 2//2
f 2//3 5//4 3//4
f 3//5 5//5 2//6
f 5//7 1//7 3//7
f 3//8 1//8 5//8
f 4//1 1//1 6//1
f 6//2 1//2 4//2
f 4//1 7//1 2//1
f 2//2 7//2 4//2
f 5//4 2//3 8//3
f 8//6 2//6 5//5
f 1//7 5//7 9//7
f 9//8 5//8 1//8
f 6//1 1//1 10//1
f 10//2 1//2 6//2
f 11//9 4//10 6//9
f 6//11 4//12 11//11
f 4//1 12//1 7//1
f 7//2 12//2 4//2
f 7//13 8//3 2//3
f 2//6 8//6 7//14
f 8//15 9//15 5//15
f 5//16 9//16 8//16
f 9//5 13//17 1//5
f 1//4 13//18 9//4
f 10//1 1//1 13//1
f 13//2 1//2 10//2
f 14//19 6//9 10//19
f 10//20 6//11 14//20
f 4//10 11//9 15//10
f 15//12 11//11 4//12
f 6//9 14//19 11//9
f 11//11 14//20 6//11
f 4//1 16//1 12//1
f 12//2 16//2 4//2
f 12//21 17//13 7//13
f 7//14 17//14 12//22
f 8//3 7//13 17//13
f 17//14 7//14 8//6
f 9//15 8//15 15//15
f 15//16 8//16 9//16
f 13//17 9//5 18//17
f 18//18 9//4 13//18
f 18//17 10//19 13//17
f 13//18 10//20 18//18
f 10//19 18//17 14//19
f 14//20 18//18 10//20
f 9//15 15//15 11//15
f 11//16 15//16 9//16
f 19//23 4//10 15//10
f 15//12 4//12 19//24
f 9//15 11//15 14//15
f 14//16 11//16 9//16
f 4//1 20//1 16//1
f 16//2 20//2 4//2
f 16//25 21//21 12//21
f 12//22 21//22 16//26
f 17//13 12//21 21//21
f 21//22 12//22 17//14
f 17//15 15//15 8//15
f 8//16 15//16 17//16
f 9//15 14//15 18//15
f 18//16 14//16 9//16
f 4//10 19//23 22//23
f 22//24 19//24 4//12
f 23//15 19//15 15//15
f 15//16 19//16 23//16
f 4//1 24//1 20//1
f 20//2 24//2 4//2
f 25//27 16//25 20//27
f 20//28 16//26 25//28
f 21//21 16//25 26//25
f 26//26 16//26 21//22
f 21//15 15//15 17//15
f 17//16 15//16 21//16
f 27//29 22//23 19//23
f 19//24 22//24 27//30
f 22//1 24//1 4//1
f 4//2 24//2 22//2
f 28//15 19//15 23//15
f 23//16 19//16 28//16
f 23//15 15//15 25//15
f 25//16 15//16 23//16
f 23//31 20//27 24//31
f 24//32 20//28 23//32
f 16//25 25//27 26//25
f 26//26 25//28 16//26
f 20//27 23//31 25//27
f 25//28 23//32 20//28
f 26//15 15//15 21//15
f 21//16 15//16 26//16
f 22//23 27//29 29//29
f 29//30 27//30 22//24
f 28//15 27//15 19//15
f 19//16 27//16 28//16
f 22//1 30//1 24//1
f 24//2 30//2 22//2
f 24//31 28//33 23//31
f 23//32 28//34 24//32
f 25//15 15//15 26//15
f 26//16 15//16 25//16
f 31//35 29//29 27//29
f 27//30 29//30 31//36
f 29//1 30//1 22//1
f 22//2 30//2 29//2
f 28//15 31//15 27//15
f 27//16 31//16 28//16
f 28//33 24//31 30//33
f 30//34 24//32 28//34
f 29//29 31//35 32//35
f 32//36 31//36 29//30
f 32//1 30//1 29//1
f 29//2 30//2 32//2
f 28//15 33//15 31//15
f 31//16 33//16 28//16
f 30//33 34//37 28//33
f 28//34 34//38 30//34
f 31//35 35//39 32//35
f 32//36 35//40 31//36
f 35//1 30//1 32//1
f 32//2 30//2 35//2
f 28//15 36//15 33//15
f 33//16 36//16 28//16
f 35//39 31//35 33//39
f 33//40 31//36 35//40
f 34//37 30//33 37//37
f 37//38 30//34 34//38
f 34//15 36//15 28//15
f 28//16 36//16 34//16
f 38//1 30//1 35//1
f 35//2 30//2 38//2
f 38//41 33//39 36//41
f 36//42 33//40 38//42
f 33//39 38//41 35//39
f 35//40 38//42 33//40
f 38//1 37//1 30//1
f 30//2 37//2 38//2
f 39//43 34//37 37//37
f 37//38 34//38 39//44
f 34//15 40//15 36//15
f 36//16 40//16 34//16
f 36//41 41//45 38//41
f 38//42 41//46 36//42
f 41//1 37//1 38//1
f 38//2 37//2 41//2
f 34//37 39//43 42//43
f 42//44 39//44 34//38
f 41//1 39//1 37//1
f 37//2 39//2 41//2
f 42//15 40//15 34//15
f 34//16 40//16 42//16
f 41//45 36//41 40//45
f 40//46 36//42 41//46
f 43//47 42//43 39//43
f 39//44 42//44 43//48
f 41//1 43//1 39//1
f 39//2 43//2 41//2
f 44//15 40//15 42//15
f 42//16 40//16 44//16
f 40//45 45//49 41//45
f 41//46 45//50 40//46
f 42//43 43//47 44//47
f 44//48 43//48 42//44
f 41//1 46//1 43//1
f 43//2 46//2 41//2
f 47//15 40//15 44//15
f 44//16 40//16 47//16
f 45//49 40//45 48//49
f 48//50 40//46 45//50
f 45//1 49//1 41//1
f 41//2 49//2 45//2
f 46//51 44//47 43//47
f 43//48 44//48 46//52
f 41//1 50//1 46//1
f 46//2 50//2 41//2
f 51//15 40//15 47//15
f 47//16 40//16 51//16
f 44//47 46//51 47//51
f 47//52 46//52 44//48
f 52//15 48//15 40//15
f 40//16 48//16 52//16
f 53//53 45//49 48//49
f 48//50 45//50 53//54
f 45//1 54//1 49//1
f 49//2 54//2 45//2
f 41//1 49//1 50//1
f 50//2 49//2 41//2
f 51//55 46//51 50//55
f 50//56 46//52 51//56
f 52//15 40//15 51//15
f 51//16 40//16 52//16
f 46//51 51//55 47//51
f 47//52 51//56 46//52
f 48//15 52//15 55//15
f 55//16 52//16 48//16
f 45//49 53//53 56//53
f 56//54 53//54 45//50
f 57//15 53//15 48//15
f 48//16 53//16 57//16
f 45//1 58//1 54//1
f 54//2 58//2 45//2
f 55//57 49//58 54//57
f 54//59 49//60 55//59
f 52//58 50//55 49//58
f 49//60 50//56 52//60
f 50//55 52//58 51//55
f 51//56 52//60 50//56
f 49//58 55//57 52//58
f 52//60 55//59 49//60
f 57//15 48//15 55//15
f 55//16 48//16 57//16
f 59//61 56//53 53//53
f 53//54 56//54 59//62
f 56//1 58//1 45//1
f 45//2 58//2 56//2
f 57//15 59//15 53//15
f 53//16 59//16 57//16
f 57//5 54//57 58//5
f 58//4 54//59 57//4
f 54//57 57//5 55//57
f 55//59 57//4 54//59
f 56//53 59//61 60//61
f 60//62 59//62 56//54
f 60//1 58//1 56//1
f 56//2 58//2 60//2
f 61//15 59//15 57//15
f 57//16 59//16 61//16
f 58//7 61//7 57//7
f 57//8 61//8 58//8
f 62//63 60//61 59//61
f 59//62 60//62 62//64
f 63//1 58//1 60//1
f 60//2 58//2 63//2
f 59//15 61//15 62//15
f 62//16 61//16 59//16
f 61//7 58//7 64//7
f 64//8 58//8 61//8
f 60//61 62//63 63//63
f 63//64 62//64 60//62
f 58//1 63//1 64//1
f 64//2 63//2 58//2
f 61//4 63//63 62//63
f 62//64 63//64 61//5
f 63//63 61//4 64//4
f 64//5 61//5 63//64
