# SSTK version 0.8.0
# 14
mtllib original-14.mtl
o BF2_BR1/BF2_BR/mesh105/mesh105-geometry#mesh105-geometry
v 0.571869 -0.603168 -0.006441
v 0.571869 -0.689358 0.016460
v 0.571869 -0.603168 0.016460
v 0.571869 -0.689358 -0.006441
v 0.577246 -0.603168 0.016460
v 0.573335 -0.603168 -0.006441
v 0.485678 -0.689358 -0.006441
v 0.577246 -0.694735 0.016460
v 0.573335 -0.690824 -0.006441
v 0.485678 -0.689358 0.016460
v 0.485678 -0.694735 0.016460
v 0.577246 -0.694735 0.032758
v 0.573335 -0.603168 0.002814
v 0.485678 -0.690824 -0.006441
v 0.577246 -0.603168 0.032758
v 0.573335 -0.690824 0.002814
v 0.485678 -0.690824 0.002814
v 0.485678 -0.694735 0.032758
v 0.575291 -0.692780 0.032758
v 0.583437 -0.603168 0.002814
v 0.485678 -0.692780 0.032758
v 0.575291 -0.603168 0.032758
v 0.583437 -0.700926 0.002814
v 0.575291 -0.692780 0.048793
v 0.583437 -0.603168 0.048793
v 0.485678 -0.700926 0.002814
v 0.485678 -0.692780 0.048793
v 0.575291 -0.603168 0.048793
v 0.583437 -0.700926 0.048793
v 0.485678 -0.700926 0.048793
vn -1 0 0
vn 1 0 0
vn 0 0 1
vn 0 0 -1
vn 0 1 0
vn 0 -1 0
usemtl material_0_0
f 1//1 2//1 3//1
f 2//1 1//1 4//1
f 3//2 2//2 1//2
f 4//2 1//2 2//2
f 2//3 5//3 3//3
f 3//4 5//4 2//4
f 6//4 4//4 1//4
f 1//3 4//3 6//3
f 7//5 2//5 4//5
f 4//6 2//6 7//6
f 2//3 8//3 5//3
f 5//4 8//4 2//4
f 9//4 4//4 6//4
f 6//3 4//3 9//3
f 2//5 7//5 10//5
f 10//6 7//6 2//6
f 9//4 7//4 4//4
f 4//3 7//3 9//3
f 8//3 2//3 11//3
f 11//4 2//4 8//4
f 12//1 5//1 8//1
f 8//2 5//2 12//2
f 13//2 9//2 6//2
f 6//1 9//1 13//1
f 10//3 11//3 2//3
f 2//4 11//4 10//4
f 7//4 9//4 14//4
f 14//3 9//3 7//3
f 11//5 12//5 8//5
f 8//6 12//6 11//6
f 5//1 12//1 15//1
f 15//2 12//2 5//2
f 9//2 13//2 16//2
f 16//1 13//1 9//1
f 9//6 17//6 14//6
f 14//5 17//5 9//5
f 12//5 11//5 18//5
f 18//6 11//6 12//6
f 12//4 19//4 15//4
f 15//3 19//3 12//3
f 20//4 16//4 13//4
f 13//3 16//3 20//3
f 17//6 9//6 16//6
f 16//5 9//5 17//5
f 21//4 12//4 18//4
f 18//3 12//3 21//3
f 12//4 21//4 19//4
f 19//3 21//3 12//3
f 15//4 19//4 22//4
f 22//3 19//3 15//3
f 23//4 16//4 20//4
f 20//3 16//3 23//3
f 23//4 17//4 16//4
f 16//3 17//3 23//3
f 21//5 24//5 19//5
f 19//6 24//6 21//6
f 24//1 22//1 19//1
f 19//2 22//2 24//2
f 25//2 23//2 20//2
f 20//1 23//1 25//1
f 17//4 23//4 26//4
f 26//3 23//3 17//3
f 24//5 21//5 27//5
f 27//6 21//6 24//6
f 22//1 24//1 28//1
f 28//2 24//2 22//2
f 23//2 25//2 29//2
f 29//1 25//1 23//1
f 23//6 30//6 26//6
f 26//5 30//5 23//5
f 27//3 30//3 24//3
f 24//4 30//4 27//4
f 24//3 25//3 28//3
f 28//4 25//4 24//4
f 24//3 29//3 25//3
f 25//4 29//4 24//4
f 30//6 23//6 29//6
f 29//5 23//5 30//5
f 29//3 24//3 30//3
f 30//4 24//4 29//4
