# SSTK version 0.8.0
# 3
mtllib original-3.mtl
o FRAME_TR1/FRAME_TR/mesh9/mesh9-geometry#mesh9-geometry
v 0.575291 0.806186 0.051400
v 0.581808 0.741013 0.063619
v 0.581808 0.812703 0.063619
v 0.575291 0.741013 0.051400
v 0.605777 0.836672 0.063619
v 0.510118 0.812703 0.063619
v 0.575291 0.806186 0.048793
v 0.605777 0.741013 0.063619
v 0.510118 0.806186 0.051400
v 0.575291 0.741013 0.048793
v 0.607877 0.741013 0.061520
v 0.510118 0.836672 0.063619
v 0.583437 0.741013 0.048793
v 0.510118 0.806186 0.048793
v 0.607877 0.838772 0.061520
v 0.510118 0.838772 0.061520
v 0.583437 0.814332 0.048793
v 0.510118 0.814332 0.048793
v 0.607877 0.741013 -0.072120
v 0.583437 0.814332 0.002814
v 0.607877 0.838772 -0.072120
v 0.510118 0.838772 -0.072120
v 0.583437 0.741013 0.002814
v 0.605777 0.741013 -0.074220
v 0.510118 0.814332 0.002814
v 0.573335 0.741013 0.002814
v 0.605777 0.836672 -0.074220
v 0.510118 0.836672 -0.074220
v 0.510118 0.804231 0.002814
v 0.573335 0.804231 0.002814
v 0.579380 0.810275 -0.074220
v 0.573335 0.804231 -0.006441
v 0.579380 0.741013 -0.074220
v 0.573335 0.741013 -0.006441
v 0.577800 0.808696 -0.073008
v 0.510118 0.810275 -0.074220
v 0.510118 0.804231 -0.006441
v 0.597123 0.741013 -0.006441
v 0.577800 0.741013 -0.073008
v 0.510118 0.806837 -0.006441
v 0.597123 0.806837 -0.006441
v 0.575942 0.741013 -0.066074
v 0.510118 0.808696 -0.073008
v 0.597123 0.806837 -0.060523
v 0.575942 0.806837 -0.066074
v 0.510118 0.806837 -0.066074
v 0.597123 0.741013 -0.060523
v 0.573750 0.804645 -0.066074
v 0.510118 0.806837 -0.060523
v 0.572032 0.741013 -0.060523
v 0.573750 0.741013 -0.066074
v 0.510118 0.802927 -0.060523
v 0.572032 0.802927 -0.060523
v 0.572032 0.741013 -0.064356
v 0.510118 0.804645 -0.066074
v 0.572032 0.802927 -0.064356
v 0.510118 0.802927 -0.064356
vn -0.8823530519030963 0 0.47058802768163566
vn 0.8823530519030963 0 -0.47058802768163566
vn 0 0 1
vn 0.2705978904609137 0.2705978904609135 0.9238796260099076
vn 0 0 -1
vn -0.2705978904609137 -0.2705978904609135 -0.9238796260099076
vn 0 -0.8823530519030964 0.47058802768163543
vn 0 0.8823530519030964 -0.47058802768163543
vn -1 0 0
vn 1 0 0
vn 0.38268289803626016 0 0.9238797538373538
vn -0.38268289803626016 0 -0.9238797538373538
vn 0 -1 0
vn 0 1 0
vn 0.7071067811865476 0 0.7071067811865476
vn -0.7071067811865476 0 -0.7071067811865476
vn 0 0.38268289803625993 0.9238797538373539
vn 0 -0.38268289803625993 -0.9238797538373539
vn 0 0.7071067811865476 0.7071067811865478
vn 0 -0.7071067811865476 -0.7071067811865478
vn 0.38268289803626016 0 -0.9238797538373538
vn 0.7071067811865476 0 -0.7071067811865476
vn -0.7071067811865476 0 0.7071067811865476
vn -0.38268289803626016 0 0.9238797538373538
vn 0.2705978904609137 0.2705978904609139 -0.9238796260099074
vn -0.2705978904609137 -0.2705978904609139 0.9238796260099074
vn 0 0.7071067811865478 -0.7071067811865476
vn 0 0.3826828980362604 -0.9238797538373537
vn 0 -0.7071067811865478 0.7071067811865476
vn 0 -0.3826828980362604 0.9238797538373537
vn -0.2232990602476577 -0.22329906024765747 -0.9488282560005399
vn 0.2232990602476577 0.22329906024765747 0.9488282560005399
vn -0.3214390874923564 0 -0.9469302577445085
vn 0.3214390874923564 0 0.9469302577445085
vn -0.8314698396094833 0 -0.5555698928305779
vn 0.8314698396094833 0 0.5555698928305779
vn 0 -0.32143908749235617 -0.9469302577445086
vn 0 0.32143908749235617 0.9469302577445086
vn 0 -0.8314698396094832 -0.5555698928305781
vn 0 0.8314698396094832 0.5555698928305781
vn -0.965925849201117 0 -0.2588189595935754
vn 0.965925849201117 0 0.2588189595935754
vn 0 -0.9659258492011171 -0.2588189595935757
vn 0 0.9659258492011171 0.2588189595935757
vn -0.9238797538373538 0 -0.38268289803626016
vn 0.9238797538373538 0 0.38268289803626016
vn 0 -0.9238797538373537 -0.3826828980362604
vn 0 0.9238797538373537 0.3826828980362604
usemtl material_0_0
f 1//1 2//1 3//1
f 2//1 1//1 4//1
f 3//2 2//2 1//2
f 4//2 1//2 2//2
f 2//3 5//4 3//3
f 3//5 5//6 2//5
f 6//7 1//7 3//7
f 3//8 1//8 6//8
f 7//9 4//9 1//9
f 1//10 4//10 7//10
f 5//4 2//3 8//11
f 8//12 2//5 5//6
f 3//3 5//4 6//3
f 6//5 5//6 3//5
f 1//7 6//7 9//7
f 9//8 6//8 1//8
f 4//9 7//9 10//9
f 10//10 7//10 4//10
f 9//13 7//13 1//13
f 1//14 7//14 9//14
f 11//15 5//4 8//11
f 8//12 5//6 11//16
f 6//3 5//4 12//17
f 12//18 5//6 6//5
f 7//5 13//5 10//5
f 10//3 13//3 7//3
f 7//13 9//13 14//13
f 14//14 9//14 7//14
f 5//4 11//15 15//15
f 15//16 11//16 5//6
f 5//4 16//19 12//17
f 12//18 16//20 5//6
f 13//5 7//5 17//5
f 17//3 7//3 13//3
f 18//5 7//5 14//5
f 14//3 7//3 18//3
f 19//10 15//10 11//10
f 11//9 15//9 19//9
f 16//19 5//4 15//19
f 15//20 5//6 16//20
f 17//5 7//5 18//5
f 18//3 7//3 17//3
f 20//9 13//9 17//9
f 17//10 13//10 20//10
f 15//10 19//10 21//10
f 21//9 19//9 15//9
f 15//14 22//14 16//14
f 16//13 22//13 15//13
f 18//13 20//13 17//13
f 17//14 20//14 18//14
f 13//9 20//9 23//9
f 23//10 20//10 13//10
f 24//21 21//22 19//22
f 19//23 21//23 24//24
f 22//14 15//14 21//14
f 21//13 15//13 22//13
f 20//13 18//13 25//13
f 25//14 18//14 20//14
f 20//3 26//3 23//3
f 23//5 26//5 20//5
f 21//22 24//21 27//25
f 27//26 24//24 21//23
f 21//27 28//28 22//27
f 22//29 28//30 21//29
f 29//3 20//3 25//3
f 25//5 20//5 29//5
f 26//3 20//3 30//3
f 30//5 20//5 26//5
f 24//21 31//31 27//25
f 27//26 31//32 24//24
f 28//28 21//27 27//25
f 27//26 21//29 28//30
f 30//3 20//3 29//3
f 29//5 20//5 30//5
f 32//9 26//9 30//9
f 30//10 26//10 32//10
f 31//31 24//21 33//33
f 33//34 24//24 31//32
f 27//25 31//31 28//28
f 28//30 31//32 27//26
f 29//13 32//13 30//13
f 30//14 32//14 29//14
f 26//9 32//9 34//9
f 34//10 32//10 26//10
f 33//33 35//35 31//31
f 31//32 35//36 33//34
f 28//28 31//31 36//37
f 36//38 31//32 28//30
f 32//13 29//13 37//13
f 37//14 29//14 32//14
f 32//5 38//5 34//5
f 34//3 38//3 32//3
f 35//35 33//33 39//35
f 39//36 33//34 35//36
f 35//39 36//37 31//31
f 31//32 36//38 35//40
f 40//5 32//5 37//5
f 37//3 32//3 40//3
f 38//5 32//5 41//5
f 41//3 32//3 38//3
f 42//41 35//35 39//35
f 39//36 35//36 42//42
f 36//37 35//39 43//39
f 43//40 35//40 36//38
f 41//5 32//5 40//5
f 40//3 32//3 41//3
f 44//9 38//9 41//9
f 41//10 38//10 44//10
f 35//35 42//41 45//41
f 45//42 42//42 35//36
f 35//39 46//43 43//39
f 43//40 46//44 35//40
f 40//13 44//13 41//13
f 41//14 44//14 40//14
f 38//9 44//9 47//9
f 47//10 44//10 38//10
f 42//5 48//6 45//5
f 45//3 48//4 42//3
f 46//43 35//39 45//43
f 45//44 35//40 46//44
f 44//13 40//13 49//13
f 49//14 40//14 44//14
f 44//3 50//3 47//3
f 47//5 50//5 44//5
f 48//6 42//5 51//12
f 51//11 42//3 48//4
f 45//5 48//6 46//5
f 46//3 48//4 45//3
f 52//3 44//3 49//3
f 49//5 44//5 52//5
f 50//3 44//3 53//3
f 53//5 44//5 50//5
f 54//45 48//6 51//12
f 51//11 48//4 54//46
f 46//5 48//6 55//18
f 55//17 48//4 46//3
f 53//3 44//3 52//3
f 52//5 44//5 53//5
f 56//45 50//9 53//9
f 53//10 50//10 56//46
f 48//6 54//45 56//45
f 56//46 54//46 48//4
f 48//6 57//47 55//18
f 55//17 57//48 48//4
f 52//13 56//47 53//13
f 53//14 56//48 52//14
f 50//9 56//45 54//45
f 54//46 56//46 50//10
f 57//47 48//6 56//47
f 56//48 48//4 57//48
f 56//47 52//13 57//47
f 57//48 52//14 56//48
