# SSTK version 0.8.0
# 28
mtllib original-28.mtl
o GLASS1/GLASS/mesh265/mesh265-geometry#mesh265-geometry
v 0.546941 0.777836 0.044338
v -0.504290 0.081736 0.044338
v 0.546941 0.081736 0.044338
v -0.504290 0.777836 0.044338
v 0.546941 0.081736 0.015854
v -0.504290 0.777836 0.015854
v -0.504290 0.081736 0.015854
v 0.546941 0.777836 0.015854
vn 0 0 1
vn 0 0 -1
vn 0 -1 0
vn 0 1 0
vn 1 0 0
vn -1 0 0
usemtl material_0_0
f 1//1 2//1 3//1
f 2//1 1//1 4//1
f 3//2 2//2 1//2
f 4//2 1//2 2//2
f 2//3 5//3 3//3
f 3//4 5//4 2//4
f 5//5 1//5 3//5
f 3//6 1//6 5//6
f 1//4 6//4 4//4
f 4//3 6//3 1//3
f 6//6 2//6 4//6
f 4//5 2//5 6//5
f 5//3 2//3 7//3
f 7//4 2//4 5//4
f 1//5 5//5 8//5
f 8//6 5//6 1//6
f 6//4 1//4 8//4
f 8//3 1//3 6//3
f 2//6 6//6 7//6
f 7//5 6//5 2//5
f 6//2 5//2 7//2
f 7//1 5//1 6//1
f 5//2 6//2 8//2
f 8//1 6//1 5//1
