# SSTK version 0.8.0
# 8
mtllib original-8.mtl
o #ID301
v 0.115924 0.384911 -0.082072
v 0.122903 -0.633902 -0.087921
v 0.115924 -0.633902 -0.082072
v 0.122903 0.384911 -0.087921
v 0.115924 -0.633902 -0.082072
v -0.118361 -0.633902 -0.375786
v -0.125340 -0.633902 -0.369937
v 0.122903 -0.633902 -0.087921
v -0.118361 0.384911 -0.375786
v 0.115924 0.384911 -0.082072
v -0.125340 0.384911 -0.369937
v 0.122903 0.384911 -0.087921
v -0.118361 0.384911 -0.375786
v -0.125340 -0.633902 -0.369937
v -0.118361 -0.633902 -0.375786
v -0.125340 0.384911 -0.369937
vn -0.6423452840090552 0 -0.7664153809203766
vn 0.6423452840090552 0 0.7664153809203766
vn 0 1 0
vn 0 -1 0
usemtl material_0_2
f 1//1 2//1 3//1
f 3//2 2//2 1//2
f 2//1 1//1 4//1
f 4//2 1//2 2//2
f 5//3 6//3 7//3
f 7//4 6//4 5//4
f 6//3 5//3 8//3
f 8//4 5//4 6//4
f 9//4 10//4 11//4
f 11//3 10//3 9//3
f 10//4 9//4 12//4
f 12//3 9//3 10//3
f 13//2 14//2 15//2
f 15//1 14//1 13//1
f 14//2 13//2 16//2
f 16//1 13//1 14//1
