# SSTK version 0.8.0
# 12
mtllib original-12.mtl
o #ID329
v 0.012911 -0.491723 -0.181247
v -0.000849 -0.470302 -0.197665
v 0.012911 0.242733 -0.181247
v -0.045697 -0.491723 -0.251176
v -0.031937 -0.470302 -0.234758
v -0.031937 0.221311 -0.234758
v -0.000849 0.221311 -0.197665
v -0.045697 0.242733 -0.251176
vt -0.4081906 2.627541
vt -0.3305657 2.821604
vt -0.4081906 9.281179
vt -0.0775575 2.627541
vt -0.1551824 2.821604
vt -0.1551824 9.087117
vt -0.3305657 9.087117
vt -0.0775575 9.281179
vn 0.7664153809203766 0 -0.6423452840090552
vn -0.7664153809203766 0 0.6423452840090552
usemtl material_0_2
f 1/1/1 2/2/1 3/3/1
f 3/3/2 2/2/2 1/1/2
f 2/2/1 1/1/1 4/4/1
f 4/4/2 1/1/2 2/2/2
f 2/2/1 4/4/1 5/5/1
f 5/5/2 4/4/2 2/2/2
f 5/5/1 4/4/1 6/6/1
f 6/6/2 4/4/2 5/5/2
f 3/3/1 7/7/1 8/8/1
f 8/8/2 7/7/2 3/3/2
f 7/7/1 3/3/1 2/2/1
f 2/2/2 3/3/2 7/7/2
f 8/8/1 7/7/1 6/6/1
f 6/6/2 7/7/2 8/8/2
f 8/8/1 6/6/1 4/4/1
f 4/4/2 6/6/2 8/8/2
