# SSTK version 0.8.0
# 5
mtllib original-5.mtl
o Group3/mesh3/mesh3-geometry#mesh3-geometry
v 0.295665 -0.096434 -0.002673
v 0.295437 -0.094710 -0.002673
v 0.295437 -0.098158 -0.002673
v 0.295665 -0.096434 -0.003801
v 0.294772 -0.099765 -0.002673
v 0.295437 -0.098158 -0.003801
v 0.295437 -0.094710 -0.003801
v 0.294772 -0.099765 -0.003801
v 0.294772 -0.093103 -0.002673
v 0.293713 -0.101145 -0.003801
v 0.293713 -0.101145 -0.002673
v 0.294772 -0.093103 -0.003801
v 0.293713 -0.091723 -0.003801
v 0.293713 -0.091723 -0.002673
v 0.292333 -0.102204 -0.002673
v 0.292333 -0.090664 -0.003801
v 0.292333 -0.102204 -0.003801
v 0.292333 -0.090664 -0.002673
v 0.290726 -0.102869 -0.002673
v 0.290726 -0.089999 -0.003801
v 0.290726 -0.102869 -0.003801
v 0.290726 -0.089999 -0.002673
v 0.289002 -0.103096 -0.002673
v 0.289002 -0.089772 -0.003801
v 0.289002 -0.103096 -0.003801
v 0.289002 -0.089772 -0.002673
v 0.210783 -0.103096 -0.003604
v 0.215715 -0.089772 -0.003801
v 0.215715 -0.103096 -0.002673
v 0.211550 -0.103096 -0.003402
v 0.215715 -0.103096 -0.003801
v 0.214846 -0.103096 -0.002780
v 0.215715 -0.089772 -0.002673
v 0.211550 -0.089772 -0.003402
v 0.212342 -0.103096 -0.003218
v 0.210121 -0.103096 -0.003801
v 0.210121 -0.089772 -0.003801
v 0.214879 -0.089772 -0.003852
v 0.213993 -0.103096 -0.002906
v 0.214846 -0.089772 -0.002780
v 0.212342 -0.089772 -0.003218
v 0.210783 -0.089772 -0.003604
v 0.213158 -0.103096 -0.003052
v 0.210043 -0.103096 -0.003824
v 0.210043 -0.089772 -0.003824
v 0.214879 -0.103096 -0.003852
v 0.213993 -0.089772 -0.002906
v 0.213158 -0.089772 -0.003052
v 0.214052 -0.089772 -0.003924
v 0.214052 -0.103096 -0.003924
v 0.209333 -0.103096 -0.004060
v 0.213236 -0.089772 -0.004016
v 0.213236 -0.103096 -0.004016
v 0.209333 -0.089772 -0.004060
v 0.208655 -0.103096 -0.004313
v 0.212433 -0.103096 -0.004127
v 0.212433 -0.089772 -0.004127
v 0.208655 -0.089772 -0.004313
v 0.211648 -0.103096 -0.004259
v 0.211648 -0.089772 -0.004259
v 0.208010 -0.103096 -0.004582
v 0.210882 -0.103096 -0.004409
v 0.208010 -0.089772 -0.004582
v 0.210138 -0.103096 -0.004578
v 0.210882 -0.089772 -0.004409
v 0.207402 -0.089772 -0.004864
v 0.210138 -0.089772 -0.004578
v 0.209418 -0.103096 -0.004765
v 0.209418 -0.089772 -0.004765
v 0.207402 -0.103096 -0.004864
v 0.208726 -0.089772 -0.004969
v 0.206831 -0.089772 -0.005161
v 0.208726 -0.103096 -0.004969
v 0.206831 -0.103096 -0.005161
v 0.208062 -0.089772 -0.005190
v 0.206831 -0.089772 -0.005679
v 0.208062 -0.103096 -0.005190
v 0.207430 -0.089772 -0.005427
v 0.206831 -0.103096 -0.005679
v 0.207430 -0.103096 -0.005427
vn 0 0 1
vn 0 0 -1
vn 0.9914448800512558 0.13052605035069056 0
vn 0.9659258164128985 0.25881908196088516 0
vn -0.9659258164128985 -0.25881908196088516 0
vn -0.9914448800512558 -0.13052605035069056 0
vn 0.9659258164128985 -0.25881908196088516 0
vn 0.9914448800512558 -0.13052605035069056 0
vn -0.9914448800512558 0.13052605035069056 0
vn -0.9659258164128985 0.25881908196088516 0
vn 0.8660251931266401 -0.5000003648698326 0
vn -0.8660251931266401 0.5000003648698326 0
vn 0.8660251931266401 0.5000003648698326 0
vn -0.8660251931266401 -0.5000003648698326 0
vn 0.7071066020283348 -0.707106960344715 0
vn -0.7071066020283348 0.707106960344715 0
vn 0.7071066020283348 0.707106960344715 0
vn -0.7071066020283348 -0.707106960344715 0
vn 0.4999999848178748 -0.8660254125498426 0
vn -0.4999999848178748 0.8660254125498426 0
vn 0.4999999848178748 0.8660254125498426 0
vn -0.4999999848178748 -0.8660254125498426 0
vn 0.25881883722631527 -0.9659258819893055 0
vn -0.25881883722631527 0.9659258819893055 0
vn 0.25881883722631527 0.9659258819893055 0
vn -0.25881883722631527 -0.9659258819893055 0
vn 0.13052592032002291 -0.9914448971700903 0
vn -0.13052592032002291 0.9914448971700903 0
vn 0.13052592032002291 0.9914448971700903 0
vn -0.13052592032002291 -0.9914448971700903 0
vn 0 -1 0
vn 0 1 0
vn -0.24041801583060285 0 0.9706694481975189
vn -0.26967033919851063 0 0.9629527029696527
vn 0.26967033919851063 0 -0.9629527029696527
vn 0.24041801583060285 0 -0.9706694481975189
vn 0.06127749501729342 0 -0.9981207685467753
vn 0.07379213579229085 0 -0.9972736438386468
vn -0.07379213579229085 0 0.9972736438386468
vn -0.06127749501729342 0 0.9981207685467753
vn -0.12158284305773846 0 0.9925812874893408
vn -0.13400261400374947 0 0.9909809783442677
vn 0.13400261400374947 0 -0.9909809783442677
vn 0.12158284305773846 0 -0.9925812874893408
vn -0.21238600291801601 0 0.9771858501659284
vn 0.21238600291801601 0 -0.9771858501659284
vn -0.28481052923061 0 0.958583831722286
vn 0.28481052923061 0 -0.958583831722286
vn -0.15932626119265142 0 0.9872259834983939
vn 0.15932626119265142 0 -0.9872259834983939
vn -0.18540671061841313 0 0.9826618704608722
vn 0.18540671061841313 0 -0.9826618704608722
vn -0.3003251134206561 0 0.9538368970892613
vn 0.3003251134206561 0 -0.9538368970892613
vn 0.09911561823486689 0 -0.9950759238479845
vn -0.09911561823486689 0 0.9950759238479845
vn -0.3325800148854138 0 0.9430750413932172
vn 0.3325800148854138 0 -0.9430750413932172
vn 0.12494285703779667 0 -0.9921639393140796
vn -0.12494285703779667 0 0.9921639393140796
vn -0.3666478510660434 0 0.9303597977710842
vn 0.3666478510660434 0 -0.9303597977710842
vn 0.15141509704542833 0 -0.9884702668197579
vn -0.15141509704542833 0 0.9884702668197579
vn -0.4027523184749952 0 0.9153090024483623
vn 0.4027523184749952 0 -0.9153090024483623
vn 0.1786824882504863 0 -0.9839067884675939
vn -0.1786824882504863 0 0.9839067884675939
vn 0.20690863591309916 0 -0.9783602692181345
vn -0.20690863591309916 0 0.9783602692181345
vn -0.44112358252588585 0 0.897446368837452
vn 0.44112358252588585 0 -0.897446368837452
vn 0.23627011484683627 0 -0.9716874151856979
vn -0.23627011484683627 0 0.9716874151856979
vn 0.26696144622769874 0 -0.9637072098038988
vn -0.26696144622769874 0 0.9637072098038988
vn -0.46123025932718015 0 0.8872804786993695
vn 0.46123025932718015 0 -0.8872804786993695
vn 0.29919344498717915 0 -0.9541924766401713
vn -0.29919344498717915 0 0.9541924766401713
vn -1 0 0
vn 1 0 0
vn 0.3331981808237538 0 -0.9428568143126194
vn -0.3331981808237538 0 0.9428568143126194
vn 0.36922300006391773 0 -0.929340828880234
vn -0.36922300006391773 0 0.929340828880234
vn 0.38807577009977984 0 -0.9216274717376121
vn -0.38807577009977984 0 0.9216274717376121
usemtl material_0_0
f 1//1 2//1 3//1
f 3//2 2//2 1//2
f 1//3 4//3 2//4
f 2//5 4//6 1//6
f 5//1 3//1 2//1
f 2//2 3//2 5//2
f 3//7 6//7 1//8
f 1//9 6//10 3//10
f 4//8 1//8 6//7
f 6//10 1//9 4//9
f 7//4 2//4 4//3
f 4//6 2//5 7//5
f 5//11 8//11 3//7
f 3//10 8//12 5//12
f 9//1 5//1 2//1
f 2//2 5//2 9//2
f 6//7 3//7 8//11
f 8//12 3//10 6//10
f 4//2 6//2 7//2
f 7//1 6//1 4//1
f 2//4 7//4 9//13
f 9//14 7//5 2//5
f 8//11 5//11 10//15
f 10//16 5//12 8//12
f 11//1 5//1 9//1
f 9//2 5//2 11//2
f 8//2 7//2 6//2
f 6//1 7//1 8//1
f 12//13 9//13 7//4
f 7//5 9//14 12//14
f 11//15 10//15 5//11
f 5//12 10//16 11//16
f 10//2 13//2 8//2
f 8//1 13//1 10//1
f 14//1 11//1 9//1
f 9//2 11//2 14//2
f 12//2 7//2 8//2
f 8//1 7//1 12//1
f 9//13 12//13 14//17
f 14//18 12//14 9//14
f 11//15 15//19 10//15
f 10//16 15//20 11//16
f 16//2 13//2 10//2
f 10//1 13//1 16//1
f 13//2 12//2 8//2
f 8//1 12//1 13//1
f 15//1 11//1 14//1
f 14//2 11//2 15//2
f 13//17 14//17 12//13
f 12//14 14//18 13//18
f 17//19 10//15 15//19
f 15//20 10//16 17//20
f 13//17 16//21 14//17
f 14//18 16//22 13//18
f 17//2 16//2 10//2
f 10//1 16//1 17//1
f 18//1 15//1 14//1
f 14//2 15//2 18//2
f 15//19 19//23 17//19
f 17//20 19//24 15//20
f 18//21 14//17 16//21
f 16//22 14//18 18//22
f 20//2 16//2 17//2
f 17//1 16//1 20//1
f 19//1 15//1 18//1
f 18//2 15//2 19//2
f 21//23 17//19 19//23
f 19//24 17//20 21//24
f 16//21 20//25 18//21
f 18//22 20//26 16//22
f 21//2 20//2 17//2
f 17//1 20//1 21//1
f 22//1 19//1 18//1
f 18//2 19//2 22//2
f 19//23 23//27 21//23
f 21//24 23//28 19//24
f 22//25 18//21 20//25
f 20//26 18//22 22//26
f 24//2 20//2 21//2
f 21//1 20//1 24//1
f 23//1 19//1 22//1
f 22//2 19//2 23//2
f 25//27 21//23 23//27
f 23//28 21//24 25//28
f 20//25 24//29 22//25
f 22//26 24//30 20//26
f 25//2 24//2 21//2
f 21//1 24//1 25//1
f 26//1 23//1 22//1
f 22//2 23//2 26//2
f 23//31 27//31 25//31
f 25//32 27//32 23//32
f 26//29 22//25 24//29
f 24//30 22//26 26//30
f 28//2 24//2 25//2
f 25//1 24//1 28//1
f 29//1 23//1 26//1
f 26//2 23//2 29//2
f 30//31 27//31 23//31
f 23//32 27//32 30//32
f 25//31 27//31 31//31
f 31//32 27//32 25//32
f 24//32 28//32 26//32
f 26//31 28//31 24//31
f 31//2 28//2 25//2
f 25//1 28//1 31//1
f 29//31 32//31 23//31
f 23//32 32//32 29//32
f 33//1 29//1 26//1
f 26//2 29//2 33//2
f 30//33 34//33 27//34
f 27//35 34//36 30//36
f 35//31 30//31 23//31
f 23//32 30//32 35//32
f 27//31 36//31 31//31
f 31//32 36//32 27//32
f 37//32 26//32 28//32
f 28//31 26//31 37//31
f 28//37 31//37 38//38
f 38//39 31//40 28//40
f 29//41 33//41 32//42
f 32//43 33//44 29//44
f 32//31 39//31 23//31
f 23//32 39//32 32//32
f 33//32 26//32 40//32
f 40//31 26//31 33//31
f 34//33 30//33 41//45
f 41//46 30//36 34//36
f 42//34 27//34 34//33
f 34//36 27//35 42//35
f 35//45 41//45 30//33
f 30//36 41//46 35//46
f 43//31 35//31 23//31
f 23//32 35//32 43//32
f 27//34 42//34 36//47
f 36//48 42//35 27//35
f 36//31 44//31 31//31
f 31//32 44//32 36//32
f 42//32 26//32 37//32
f 37//31 26//31 42//31
f 37//32 28//32 45//32
f 45//31 28//31 37//31
f 46//38 38//38 31//37
f 31//40 38//39 46//39
f 28//32 38//32 45//32
f 45//31 38//31 28//31
f 40//42 32//42 33//41
f 33//44 32//43 40//43
f 32//42 40//42 39//49
f 39//50 40//43 32//43
f 39//31 43//31 23//31
f 23//32 43//32 39//32
f 40//32 26//32 47//32
f 47//31 26//31 40//31
f 41//32 26//32 34//32
f 34//31 26//31 41//31
f 34//32 26//32 42//32
f 42//31 26//31 34//31
f 41//45 35//45 48//51
f 48//52 35//46 41//46
f 43//51 48//51 35//45
f 35//46 48//52 43//52
f 37//47 36//47 42//34
f 42//35 36//48 37//48
f 36//47 37//47 44//53
f 44//54 37//48 36//48
f 31//31 44//31 46//31
f 46//32 44//32 31//32
f 45//53 44//53 37//47
f 37//48 44//54 45//54
f 38//38 46//38 49//55
f 49//56 46//39 38//39
f 38//32 49//32 45//32
f 45//31 49//31 38//31
f 47//49 39//49 40//42
f 40//43 39//50 47//50
f 39//49 47//49 43//51
f 43//52 47//50 39//50
f 47//32 26//32 48//32
f 48//31 26//31 47//31
f 48//32 26//32 41//32
f 41//31 26//31 48//31
f 48//51 43//51 47//49
f 47//50 43//52 48//52
f 46//31 44//31 50//31
f 50//32 44//32 46//32
f 44//53 45//53 51//57
f 51//58 45//54 44//54
f 50//55 49//55 46//38
f 46//39 49//56 50//56
f 49//32 52//32 45//32
f 45//31 52//31 49//31
f 50//31 44//31 53//31
f 53//32 44//32 50//32
f 54//57 51//57 45//53
f 45//54 51//58 54//58
f 44//31 51//31 53//31
f 53//32 51//32 44//32
f 49//55 50//55 52//59
f 52//60 50//56 49//56
f 45//32 52//32 54//32
f 54//31 52//31 45//31
f 53//59 52//59 50//55
f 50//56 52//60 53//60
f 51//57 54//57 55//61
f 55//62 54//58 51//58
f 53//31 51//31 56//31
f 56//32 51//32 53//32
f 52//32 57//32 54//32
f 54//31 57//31 52//31
f 52//59 53//59 57//63
f 57//64 53//60 52//60
f 58//61 55//61 54//57
f 54//58 55//62 58//62
f 51//31 55//31 59//31
f 59//32 55//32 51//32
f 56//31 51//31 59//31
f 59//32 51//32 56//32
f 56//63 57//63 53//59
f 53//60 57//64 56//64
f 57//32 60//32 54//32
f 54//31 60//31 57//31
f 55//61 58//61 61//65
f 61//66 58//62 55//62
f 54//32 60//32 58//32
f 58//31 60//31 54//31
f 59//31 55//31 62//31
f 62//32 55//32 59//32
f 59//67 60//67 56//63
f 56//64 60//68 59//68
f 57//63 56//63 60//67
f 60//68 56//64 57//64
f 63//65 61//65 58//61
f 58//62 61//66 63//66
f 55//31 61//31 64//31
f 64//32 61//32 55//32
f 60//32 65//32 58//32
f 58//31 65//31 60//31
f 62//31 55//31 64//31
f 64//32 55//32 62//32
f 62//69 65//69 59//67
f 59//68 65//70 62//70
f 60//67 59//67 65//69
f 65//70 59//68 60//68
f 63//65 66//71 61//65
f 61//66 66//72 63//66
f 58//32 67//32 63//32
f 63//31 67//31 58//31
f 64//31 61//31 68//31
f 68//32 61//32 64//32
f 65//32 67//32 58//32
f 58//31 67//31 65//31
f 64//73 67//73 62//69
f 62//70 67//74 64//74
f 65//69 62//69 67//73
f 67//74 62//70 65//70
f 63//32 69//32 66//32
f 66//31 69//31 63//31
f 70//71 61//65 66//71
f 66//72 61//66 70//72
f 67//32 69//32 63//32
f 63//31 69//31 67//31
f 61//31 70//31 68//31
f 68//32 70//32 61//32
f 68//75 69//75 64//73
f 64//74 69//76 68//76
f 67//73 64//73 69//75
f 69//76 64//74 67//74
f 69//32 71//32 66//32
f 66//31 71//31 69//31
f 66//71 72//77 70//71
f 70//72 72//78 66//72
f 68//31 70//31 73//31
f 73//32 70//32 68//32
f 69//75 68//75 71//79
f 71//80 68//76 69//76
f 66//32 71//32 72//32
f 72//31 71//31 66//31
f 74//77 70//71 72//77
f 72//78 70//72 74//78
f 70//31 74//31 73//31
f 73//32 74//32 70//32
f 73//79 71//79 68//75
f 68//76 71//80 73//80
f 71//32 75//32 72//32
f 72//31 75//31 71//31
f 72//81 76//81 74//81
f 74//82 76//82 72//82
f 73//31 74//31 77//31
f 77//32 74//32 73//32
f 71//79 73//79 75//83
f 75//84 73//80 71//80
f 75//32 78//32 72//32
f 72//31 78//31 75//31
f 76//32 72//32 78//32
f 78//31 72//31 76//31
f 79//81 74//81 76//81
f 76//82 74//82 79//82
f 77//31 74//31 80//31
f 80//32 74//32 77//32
f 77//83 75//83 73//79
f 73//80 75//84 77//84
f 75//83 77//83 78//85
f 78//86 77//84 75//84
f 78//85 80//85 76//87
f 76//88 80//86 78//86
f 79//31 80//31 74//31
f 74//32 80//32 79//32
f 79//87 76//87 80//85
f 80//86 76//88 79//88
f 80//85 78//85 77//83
f 77//84 78//86 80//86
