mtllib new-2.mtl
v -0.504060 0.302434 0.376751
v -0.440667 0.241393 0.376751
v -0.420193 -0.740443 0.376751
v -0.440667 -0.740443 0.376751
v -0.420193 0.118466 0.376751
v -0.420193 -0.634196 0.376751
v -0.440667 -0.634196 0.376751
v -0.440667 0.118466 0.376751
v -0.420193 0.078306 0.395154
v -0.440667 0.078306 0.395154
v -0.420193 0.055933 0.383003
v -0.440667 -0.577356 0.395154
v -0.440667 0.055933 0.383003
v -0.420193 -0.577356 0.395154
v -0.420193 -0.003507 0.401603
v -0.440667 -0.571663 0.383003
v -0.420193 -0.571663 0.383003
v -0.440667 -0.003507 0.401603
v -0.420193 -0.006703 0.388121
v -0.440667 -0.006703 0.388121
v -0.440667 -0.495543 0.401603
v -0.420193 -0.495543 0.401603
v -0.420193 -0.085444 0.406211
v -0.420193 -0.069421 0.392103
v -0.440667 -0.509027 0.388121
v -0.420193 -0.509027 0.388121
v -0.440667 -0.069421 0.392103
v -0.440667 -0.085444 0.406211
v -0.440667 -0.413606 0.406211
v -0.440667 -0.446309 0.392103
v -0.420193 -0.446309 0.392103
v -0.420193 -0.167464 0.408977
v -0.420193 -0.132201 0.394948
v -0.440667 -0.132201 0.394948
v -0.420193 -0.413606 0.406211
v -0.440667 -0.167464 0.408977
v -0.440667 -0.331586 0.408977
v -0.440667 -0.383528 0.394948
v -0.420193 -0.383528 0.394948
v -0.420193 -0.249525 0.409899
v -0.420193 -0.195023 0.396656
v -0.440667 -0.195023 0.396656
v -0.420193 -0.331586 0.408977
v -0.440667 -0.249525 0.409899
v -0.440667 -0.320707 0.396656
v -0.420193 -0.320707 0.396656
v -0.420193 -0.257865 0.397225
v -0.440667 -0.257865 0.397225
vn -0.707107 0.000000 0.707107
vn 0.707107 0.000000 -0.707107
vn -0.447898 0.055221 0.892378
vn 0.447898 -0.055221 -0.892378
vn 0.447898 -0.055221 0.892378
vn -0.447898 0.055221 -0.892378
vn -0.447898 -0.055221 0.892378
vn 0.447898 0.055221 -0.892378
vn 0.995076 -0.098988 0.004936
vn -0.995076 0.098988 -0.004936
vn 0.995076 0.098988 0.004936
vn -0.995076 -0.098988 -0.004936
vn -0.995076 0.098988 0.004936
vn 0.995076 -0.098988 -0.004936
vn -0.995076 -0.098988 0.004936
vn 0.995076 0.098988 -0.004936
vn 0.447236 0.080295 0.890804
vn -0.447236 -0.080295 -0.890804
vn -0.447236 0.080295 0.890804
vn 0.447236 -0.080295 -0.890804
vn 0.447228 -0.080910 -0.890753
vn -0.447228 0.080910 0.890753
vn -0.447236 -0.080295 0.890804
vn 0.447236 0.080295 -0.890804
vn -0.447228 -0.080910 -0.890753
vn 0.447228 0.080910 0.890753
vn 0.447236 -0.080295 0.890804
vn -0.447236 0.080295 -0.890804
vn 0.447236 0.060257 0.892384
vn -0.447236 -0.060257 -0.892384
vn -0.447228 0.080910 -0.890753
vn 0.447228 -0.080910 0.890753
vn 0.447228 0.080910 -0.890753
vn -0.447228 -0.080910 0.890753
vn -0.447236 0.060257 0.892384
vn 0.447236 -0.060257 -0.892384
vn 0.447228 -0.064760 -0.892072
vn -0.447228 0.064760 0.892072
vn -0.447228 -0.064760 -0.892072
vn 0.447228 0.064760 0.892072
vn -0.447236 -0.060257 0.892384
vn 0.447236 0.060257 -0.892384
vn 0.447236 -0.060257 0.892384
vn -0.447236 0.060257 -0.892384
vn 0.447236 0.040188 0.893513
vn -0.447236 -0.040188 -0.893513
vn 0.447228 -0.048588 -0.893099
vn -0.447228 0.048588 0.893099
vn -0.447228 0.064760 -0.892072
vn 0.447228 -0.064760 0.892072
vn 0.447228 0.064760 -0.892072
vn -0.447228 -0.064760 0.892072
vn -0.447228 -0.048588 -0.893099
vn 0.447228 0.048588 0.893099
vn -0.447236 0.040188 0.893513
vn 0.447236 -0.040188 -0.893513
vn -0.447236 -0.040188 0.893513
vn 0.447236 0.040188 -0.893513
vn -0.447228 0.048588 -0.893099
vn 0.447228 -0.048588 0.893099
vn 0.447228 0.048588 -0.893099
vn -0.447228 -0.048588 0.893099
vn 0.447236 0.020099 0.894190
vn -0.447236 -0.020099 -0.894190
vn 0.447228 -0.032401 -0.893833
vn -0.447228 0.032401 0.893833
vn -0.447228 -0.032401 -0.893833
vn 0.447228 0.032401 0.893833
vn 0.447236 -0.040188 0.893513
vn -0.447236 0.040188 -0.893513
vn -0.447236 0.020099 0.894190
vn 0.447236 -0.020099 -0.894190
vn -0.447236 -0.020099 0.894190
vn 0.447236 0.020099 -0.894190
vn -0.447228 0.032401 -0.893833
vn 0.447228 -0.032401 0.893833
vn 0.447228 0.032401 -0.893833
vn -0.447228 -0.032401 0.893833
vn 0.447236 0.000000 0.894416
vn -0.447236 0.000000 -0.894416
vn 0.447228 -0.016203 -0.894273
vn -0.447228 0.016203 0.894273
vn -0.447228 -0.016203 -0.894273
vn 0.447228 0.016203 0.894273
vn 0.447236 -0.020099 0.894190
vn -0.447236 0.020099 -0.894190
vn -0.447236 0.000000 0.894416
vn 0.447236 0.000000 -0.894416
vn -0.447228 0.016203 -0.894273
vn 0.447228 -0.016203 0.894273
vn 0.447228 0.016203 -0.894273
vn -0.447228 -0.016203 0.894273
vn 0.447228 0.000000 -0.894420
vn -0.447228 0.000000 0.894420
vn -0.447228 0.000000 -0.894420
vn 0.447228 0.000000 0.894420
usemtl material-0
f 2//3 1//1 4//7
f 4//8 1//2 2//4
f 5//9 6//11 3//5
f 3//6 6//12 5//10
f 2//3 4//7 7//13
f 7//14 4//8 2//4
f 8//15 6//11 5//9
f 5//10 6//12 8//16
f 2//3 7//13 8//15
f 8//16 7//14 2//4
f 6//11 8//15 7//13
f 7//14 8//16 6//12
f 15//29 11//21 9//17
f 9//18 11//22 15//30
f 13//25 18//35 10//19
f 10//20 18//36 13//26
f 15//29 10//19 18//35
f 18//36 10//20 15//30
f 15//29 19//37 11//21
f 11//22 19//38 15//30
f 11//21 20//39 13//25
f 13//26 20//40 11//22
f 14//27 21//41 12//23
f 12//24 21//42 14//28
f 16//31 12//23 21//41
f 21//42 12//24 16//32
f 14//27 17//33 22//43
f 22//44 17//34 14//28
f 20//39 18//35 13//25
f 13//26 18//36 20//40
f 18//35 23//45 15//29
f 15//30 23//46 18//36
f 15//29 24//47 19//37
f 19//38 24//48 15//30
f 20//39 11//21 19//37
f 19//38 11//22 20//40
f 21//41 14//27 22//43
f 22//44 14//28 21//42
f 16//31 21//41 25//49
f 25//50 21//42 16//32
f 22//43 17//33 26//51
f 26//52 17//34 22//44
f 27//53 18//35 20//39
f 20//40 18//36 27//54
f 23//45 18//35 28//55
f 28//56 18//36 23//46
f 23//45 24//47 15//29
f 15//30 24//48 23//46
f 27//53 19//37 24//47
f 24//48 19//38 27//54
f 19//37 27//53 20//39
f 20//40 27//54 19//38
f 22//43 29//57 21//41
f 21//42 29//58 22//44
f 25//49 21//41 30//59
f 30//60 21//42 25//50
f 26//51 16//31 25//49
f 25//50 16//32 26//52
f 22//43 26//51 31//61
f 31//62 26//52 22//44
f 27//53 28//55 18//35
f 18//36 28//56 27//54
f 28//55 32//63 23//45
f 23//46 32//64 28//56
f 23//45 33//65 24//47
f 24//48 33//66 23//46
f 24//47 34//67 27//53
f 27//54 34//68 24//48
f 29//57 22//43 35//69
f 35//70 22//44 29//58
f 30//59 21//41 29//57
f 29//58 21//42 30//60
f 31//61 25//49 30//59
f 30//60 25//50 31//62
f 25//49 31//61 26//51
f 26//52 31//62 25//50
f 22//43 31//61 35//69
f 35//70 31//62 22//44
f 34//67 28//55 27//53
f 27//54 28//56 34//68
f 32//63 28//55 36//71
f 36//72 28//56 32//64
f 32//63 33//65 23//45
f 23//46 33//66 32//64
f 34//67 24//47 33//65
f 33//66 24//48 34//68
f 35//69 37//73 29//57
f 29//58 37//74 35//70
f 30//59 29//57 38//75
f 38//76 29//58 30//60
f 30//59 39//77 31//61
f 31//62 39//78 30//60
f 35//69 31//61 39//77
f 39//78 31//62 35//70
f 34//67 36//71 28//55
f 28//56 36//72 34//68
f 36//71 40//79 32//63
f 32//64 40//80 36//72
f 32//63 41//81 33//65
f 33//66 41//82 32//64
f 33//65 42//83 34//67
f 34//68 42//84 33//66
f 37//73 35//69 43//85
f 43//86 35//70 37//74
f 38//75 29//57 37//73
f 37//74 29//58 38//76
f 39//77 30//59 38//75
f 38//76 30//60 39//78
f 35//69 39//77 43//85
f 43//86 39//78 35//70
f 42//83 36//71 34//67
f 34//68 36//72 42//84
f 40//79 36//71 44//87
f 44//88 36//72 40//80
f 40//79 41//81 32//63
f 32//64 41//82 40//80
f 42//83 33//65 41//81
f 41//82 33//66 42//84
f 43//85 44//87 37//73
f 37//74 44//88 43//86
f 38//75 37//73 45//89
f 45//90 37//74 38//76
f 38//75 46//91 39//77
f 39//78 46//92 38//76
f 43//85 39//77 46//91
f 46//92 39//78 43//86
f 42//83 44//87 36//71
f 36//72 44//88 42//84
f 44//87 43//85 40//79
f 40//80 43//86 44//88
f 40//79 47//93 41//81
f 41//82 47//94 40//80
f 41//81 48//95 42//83
f 42//84 48//96 41//82
f 45//89 37//73 44//87
f 44//88 37//74 45//90
f 46//91 38//75 45//89
f 45//90 38//76 46//92
f 43//85 46//91 40//79
f 40//80 46//92 43//86
f 48//95 44//87 42//83
f 42//84 44//88 48//96
f 40//79 46//91 47//93
f 47//94 46//92 40//80
f 48//95 41//81 47//93
f 47//94 41//82 48//96
f 45//89 44//87 48//95
f 48//96 44//88 45//90
f 45//89 47//93 46//91
f 46//92 47//94 45//90
f 47//93 45//89 48//95
f 48//96 45//90 47//94