mtllib new-4.mtl
v 0.534263 0.302434 0.376751
v 0.534263 0.783569 0.376751
v -0.504060 0.783569 0.376751
v -0.420193 0.241393 0.376751
v -0.420193 0.728808 0.376751
v -0.440667 0.728808 0.376751
v -0.504060 0.302434 0.376751
v -0.440667 0.241393 0.376751
v -0.420193 0.343389 0.376751
v -0.440667 0.343389 0.376751
v -0.420193 0.159953 0.386869
v -0.420193 0.697648 0.386812
v -0.420193 0.677514 0.376751
v -0.440667 0.392828 0.376751
v -0.440667 0.159953 0.386869
v -0.440667 0.697648 0.386812
v -0.440667 0.374549 0.386812
v -0.420193 0.392828 0.376751
v -0.440667 0.677514 0.376751
v -0.440667 0.118466 0.376751
v -0.420193 0.665967 0.395087
v -0.420193 0.374549 0.386812
v -0.440667 0.406230 0.395087
v -0.440667 0.665967 0.395087
v -0.420193 0.654155 0.382095
v -0.440667 0.654155 0.382095
v -0.440667 0.416186 0.382095
vn 0.577350 -0.577350 -0.577350
vn -0.577350 0.577350 0.577350
vn -0.577350 -0.577350 -0.577350
vn 0.577350 0.577350 0.577350
vn -0.707107 0.000000 0.707107
vn 0.707107 0.000000 -0.707107
vn -0.707107 0.000000 -0.707107
vn 0.707107 0.000000 0.707107
vn 0.447898 0.055221 0.892378
vn -0.447898 -0.055221 -0.892378
vn 0.451604 0.138754 0.881363
vn -0.451604 -0.138754 -0.881363
vn -0.451604 0.138754 0.881363
vn 0.451604 -0.138754 -0.881363
vn -0.447898 0.055221 0.892378
vn 0.447898 -0.055221 -0.892378
vn 0.451604 -0.138754 0.881363
vn -0.451604 0.138754 -0.881363
vn -0.451604 -0.138754 0.881363
vn 0.451604 0.138754 -0.881363
vn 0.447236 0.100292 0.888775
vn -0.447236 -0.100292 -0.888775
vn 0.447358 0.250518 0.858552
vn -0.447358 -0.250518 -0.858552
vn 0.975731 -0.217590 0.024571
vn -0.975731 0.217590 -0.024571
vn -0.975731 0.217590 0.024571
vn 0.975731 -0.217590 -0.024571
vn -0.447236 0.100292 0.888775
vn 0.447236 -0.100292 -0.888775
vn -0.447358 0.250518 0.858552
vn 0.447358 -0.250518 -0.858552
vn -0.447358 -0.250518 0.858552
vn 0.447358 0.250518 -0.858552
vn 0.975731 0.217590 0.024571
vn -0.975731 -0.217590 -0.024571
vn -0.975731 -0.217590 0.024571
vn 0.975731 0.217590 -0.024571
vn -0.995076 -0.098988 0.004936
vn 0.995076 0.098988 -0.004936
vn 0.447358 0.201390 0.871386
vn -0.447358 -0.201390 -0.871386
vn 0.447358 -0.250518 0.858552
vn -0.447358 0.250518 -0.858552
vn -0.447358 -0.201390 0.871386
vn 0.447358 0.201390 -0.871386
vn -0.447358 0.201390 0.871386
vn 0.447358 -0.201390 -0.871386
vn 0.447288 -0.181585 -0.875763
vn -0.447288 0.181585 0.875763
vn -0.447288 -0.181585 -0.875763
vn 0.447288 0.181585 0.875763
vn -0.447288 0.181585 -0.875763
vn 0.447288 -0.181585 0.875763
usemtl material-0
f 2//4 5//11 1//8
f 1//7 5//12 2//3
f 3//2 6//13 2//4
f 2//3 6//14 3//1
f 1//8 8//15 4//9
f 4//10 8//16 1//7
f 2//4 6//13 5//11
f 5//12 6//14 2//3
f 9//17 1//8 5//11
f 5//12 1//7 9//18
f 7//5 8//15 1//8
f 1//7 8//16 7//6
f 8//15 11//21 4//9
f 4//10 11//22 8//16
f 6//13 12//23 5//11
f 5//12 12//24 6//14
f 10//19 1//8 9//17
f 9//18 1//7 10//20
f 10//19 7//5 1//8
f 1//7 7//6 10//20
f 11//21 8//15 15//29
f 15//30 8//16 11//22
f 12//23 6//13 16//31
f 16//32 6//14 12//24
f 12//23 13//25 5//11
f 5//12 13//26 12//24
f 9//17 17//33 10//19
f 10//20 17//34 9//18
f 17//33 14//27 10//19
f 10//20 14//28 17//34
f 20//39 15//29 8//15
f 8//16 15//30 20//40
f 19//37 16//31 6//13
f 6//14 16//32 19//38
f 16//31 21//41 12//23
f 12//24 21//42 16//32
f 21//41 13//25 12//23
f 12//24 13//26 21//42
f 17//33 9//17 22//43
f 22//44 9//18 17//34
f 18//35 22//43 9//17
f 9//18 22//44 18//36
f 14//27 17//33 23//45
f 23//46 17//34 14//28
f 19//37 24//47 16//31
f 16//32 24//48 19//38
f 21//41 16//31 24//47
f 24//48 16//32 21//42
f 21//41 25//49 13//25
f 13//26 25//50 21//42
f 22//43 23//45 17//33
f 17//34 23//46 22//44
f 13//25 26//51 19//37
f 19//38 26//52 13//26
f 14//27 23//45 27//53
f 27//54 23//46 14//28
f 26//51 24//47 19//37
f 19//38 24//48 26//52
f 26//51 13//25 25//49
f 25//50 13//26 26//52