mtllib new-0.mtl
v 0.534263 -0.776352 0.350383
v 0.534263 -0.776352 -0.367137
v -0.504060 -0.776352 -0.367137
v -0.504060 -0.776352 0.350383
v 0.526463 -0.776352 0.350383
v -0.501135 -0.776352 0.350383
vn 0.577350 0.577350 -0.577350
vn 0.577350 -0.577350 0.577350
vn 0.577350 -0.577350 -0.577350
vn -0.577350 -0.577350 0.577350
vn -0.577350 0.577350 -0.577350
vn -0.577350 0.577350 0.577350
vn -0.577350 -0.577350 -0.577350
vn 0.577350 0.577350 0.577350
usemtl material-0
f 1//2 3//7 2//3
f 2//6 3//8 1//5
f 3//7 1//2 4//4
f 4//1 1//5 3//8
f 4//4 1//2 5//2
f 5//5 1//5 4//1
f 4//4 5//2 6//4
f 6//1 5//5 4//1