# SSTK version 0.8.0
# 8
mtllib original-8.mtl
o FRAME_CR1/FRAME_CR/mesh61/mesh61-geometry#mesh61-geometry
v 0.575291 0.741013 0.051400
v 0.581808 -0.627607 0.063619
v 0.581808 0.741013 0.063619
v 0.575291 -0.627607 0.051400
v 0.605777 0.741013 0.063619
v 0.575291 0.741013 0.048793
v 0.605777 -0.627607 0.063619
v 0.575291 -0.627607 0.048793
v 0.607877 -0.627607 0.061520
v 0.583437 -0.627607 0.048793
v 0.607877 0.741013 0.061520
v 0.583437 0.741013 0.048793
v 0.607877 -0.627607 -0.072120
v 0.583437 0.741013 0.002814
v 0.607877 0.741013 -0.072120
v 0.583437 -0.627607 0.002814
v 0.605777 -0.627607 -0.074220
v 0.573335 -0.627607 0.002814
v 0.605777 0.741013 -0.074220
v 0.573335 0.741013 0.002814
v 0.579380 0.741013 -0.074220
v 0.573335 0.741013 -0.006441
v 0.579380 -0.627607 -0.074220
v 0.573335 -0.627607 -0.006441
v 0.577800 0.741013 -0.073008
v 0.597123 -0.627607 -0.006441
v 0.577800 -0.627607 -0.073008
v 0.597123 0.741013 -0.006441
v 0.575942 -0.627607 -0.066074
v 0.597123 0.741013 -0.060523
v 0.575942 0.741013 -0.066074
v 0.597123 -0.627607 -0.060523
v 0.573750 0.741013 -0.066074
v 0.572032 -0.627607 -0.060523
v 0.573750 -0.627607 -0.066074
v 0.572032 0.741013 -0.060523
v 0.572032 -0.627607 -0.064356
v 0.572032 0.741013 -0.064356
vn -0.8823530519030963 0 0.47058802768163566
vn 0.8823530519030963 0 -0.47058802768163566
vn 0 0 1
vn 0.38268289803626016 0 0.9238797538373538
vn 0 0 -1
vn -0.38268289803626016 0 -0.9238797538373538
vn -1 0 0
vn 1 0 0
vn 0.7071067811865476 0 0.7071067811865476
vn -0.7071067811865476 0 -0.7071067811865476
vn 0.38268289803626016 0 -0.9238797538373538
vn 0.7071067811865476 0 -0.7071067811865476
vn -0.7071067811865476 0 0.7071067811865476
vn -0.38268289803626016 0 0.9238797538373538
vn -0.3214390874923564 0 -0.9469302577445085
vn 0.3214390874923564 0 0.9469302577445085
vn -0.8314698396094833 0 -0.5555698928305779
vn 0.8314698396094833 0 0.5555698928305779
vn -0.965925849201117 0 -0.2588189595935754
vn 0.965925849201117 0 0.2588189595935754
vn -0.9238797538373538 0 -0.38268289803626016
vn 0.9238797538373538 0 0.38268289803626016
usemtl material_0_0
f 1//1 2//1 3//1
f 2//1 1//1 4//1
f 3//2 2//2 1//2
f 4//2 1//2 2//2
f 2//3 5//4 3//3
f 3//5 5//6 2//5
f 6//7 4//7 1//7
f 1//8 4//8 6//8
f 5//4 2//3 7//4
f 7//6 2//5 5//6
f 4//7 6//7 8//7
f 8//8 6//8 4//8
f 9//9 5//4 7//4
f 7//6 5//6 9//10
f 6//5 10//5 8//5
f 8//3 10//3 6//3
f 5//4 9//9 11//9
f 11//10 9//10 5//6
f 10//5 6//5 12//5
f 12//3 6//3 10//3
f 13//8 11//8 9//8
f 9//7 11//7 13//7
f 14//7 10//7 12//7
f 12//8 10//8 14//8
f 11//8 13//8 15//8
f 15//7 13//7 11//7
f 10//7 14//7 16//7
f 16//8 14//8 10//8
f 17//11 15//12 13//12
f 13//13 15//13 17//14
f 14//3 18//3 16//3
f 16//5 18//5 14//5
f 15//12 17//11 19//11
f 19//14 17//14 15//13
f 18//3 14//3 20//3
f 20//5 14//5 18//5
f 17//11 21//15 19//11
f 19//14 21//16 17//14
f 22//7 18//7 20//7
f 20//8 18//8 22//8
f 21//15 17//11 23//15
f 23//16 17//14 21//16
f 18//7 22//7 24//7
f 24//8 22//8 18//8
f 23//15 25//17 21//15
f 21//16 25//18 23//16
f 22//5 26//5 24//5
f 24//3 26//3 22//3
f 25//17 23//15 27//17
f 27//18 23//16 25//18
f 26//5 22//5 28//5
f 28//3 22//3 26//3
f 29//19 25//17 27//17
f 27//18 25//18 29//20
f 30//7 26//7 28//7
f 28//8 26//8 30//8
f 25//17 29//19 31//19
f 31//20 29//20 25//18
f 26//7 30//7 32//7
f 32//8 30//8 26//8
f 29//5 33//6 31//5
f 31//3 33//4 29//3
f 30//3 34//3 32//3
f 32//5 34//5 30//5
f 33//6 29//5 35//6
f 35//4 29//3 33//4
f 34//3 30//3 36//3
f 36//5 30//5 34//5
f 37//21 33//6 35//6
f 35//4 33//4 37//22
f 38//21 34//7 36//7
f 36//8 34//8 38//22
f 33//6 37//21 38//21
f 38//22 37//22 33//4
f 34//7 38//21 37//21
f 37//22 38//22 34//8
