# SSTK version 0.8.0
# 21
mtllib original-21.mtl
o TF_TR1/TF_TR/mesh174/mesh174-geometry#mesh174-geometry
v 0.574313 0.805208 0.053458
v 0.484701 0.805208 0.050851
v 0.484701 0.805208 0.053458
v 0.574313 0.805208 0.050851
v 0.484701 0.781909 0.053458
v 0.574313 0.715596 0.050851
v 0.582460 0.813355 0.050851
v 0.551014 0.781909 0.053458
v 0.574313 0.715596 0.053458
v 0.484701 0.813355 0.050851
v 0.551014 0.715596 0.053458
v 0.551014 0.781909 0.053137
v 0.582460 0.715596 0.050851
v 0.484701 0.813355 0.004904
v 0.484701 0.781909 0.053137
v 0.582460 0.715596 0.004904
v 0.582460 0.813355 0.004904
v 0.551014 0.715596 0.053137
v 0.484701 0.766877 0.053137
v 0.574313 0.805208 0.004904
v 0.535982 0.715596 0.053137
v 0.535982 0.766877 0.053137
v 0.484701 0.805208 0.004904
v 0.531380 0.762275 0.045164
v 0.574313 0.715596 0.004904
v 0.484701 0.805208 0.002949
v 0.484701 0.762275 0.045164
v 0.574313 0.715596 0.002949
v 0.574313 0.805208 0.002949
v 0.531380 0.715596 0.045164
v 0.531383 0.762278 0.044338
v 0.537960 0.768856 0.002949
v 0.484701 0.762278 0.044338
v 0.484701 0.768856 0.002949
v 0.531383 0.715596 0.044338
v 0.484701 0.777836 0.044338
v 0.537960 0.715596 0.002949
v 0.536381 0.767276 0.004161
v 0.546941 0.715596 0.044338
v 0.546941 0.777836 0.044338
v 0.484701 0.767276 0.004161
v 0.546941 0.777836 0.015825
v 0.536381 0.715596 0.004161
v 0.484701 0.765942 0.009141
v 0.484701 0.777836 0.015825
v 0.535047 0.715596 0.009141
v 0.535047 0.765942 0.009141
v 0.546941 0.715596 0.015825
v 0.484701 0.762031 0.015825
v 0.532854 0.763749 0.009141
v 0.531136 0.715596 0.015825
v 0.531136 0.762031 0.015825
v 0.484701 0.763749 0.009141
v 0.531136 0.762031 0.010859
v 0.532854 0.715596 0.009141
v 0.484701 0.762031 0.010859
v 0.531136 0.715596 0.010859
vn 0 1 0
vn 0 -1 0
vn 0 0 1
vn 0 0 -1
vn 1 0 0
vn -1 0 0
vn 0 -0.8660253028382763 0.5000001748438415
vn 0 0.8660253028382763 -0.5000001748438415
vn -0.8660253028382762 0 0.5000001748438417
vn 0.8660253028382762 0 -0.5000001748438417
vn 0 -0.9999910746463365 -0.004225000315383832
vn 0 0.9999910746463365 0.004225000315383832
vn -0.2232990602476577 -0.22329906024765747 -0.9488282560005399
vn 0.2232990602476577 0.22329906024765747 0.9488282560005399
vn -0.9999910746463365 0 -0.00422500031538361
vn 0.9999910746463365 0 0.00422500031538361
vn 0 -0.3214399841690809 -0.946929953363701
vn 0 0.3214399841690809 0.946929953363701
vn -0.3214399841690811 0 -0.9469299533637009
vn 0.3214399841690811 0 0.9469299533637009
vn 0 -0.8314698396094832 -0.5555698928305781
vn 0 0.8314698396094832 0.5555698928305781
vn -0.8314698396094833 0 -0.5555698928305779
vn 0.8314698396094833 0 0.5555698928305779
vn 0 -0.9659258492011171 -0.2588189595935757
vn 0 0.9659258492011171 0.2588189595935757
vn -0.965925849201117 0 -0.2588189595935754
vn 0.965925849201117 0 0.2588189595935754
vn -0.2705978904609137 -0.2705978904609135 -0.9238796260099076
vn 0.2705978904609137 0.2705978904609135 0.9238796260099076
vn 0 -0.38268289803625993 -0.9238797538373539
vn 0 0.38268289803625993 0.9238797538373539
vn 0 -0.9238797538373537 -0.3826828980362604
vn 0 0.9238797538373537 0.3826828980362604
vn -0.38268289803626016 0 -0.9238797538373538
vn 0.38268289803626016 0 0.9238797538373538
vn -0.9238797538373538 0 -0.38268289803626016
vn 0.9238797538373538 0 0.38268289803626016
usemtl material_0_0
f 1//1 2//1 3//1
f 2//1 1//1 4//1
f 3//2 2//2 1//2
f 4//2 1//2 2//2
f 5//3 1//3 3//3
f 3//4 1//4 5//4
f 1//5 6//5 4//5
f 4//6 6//6 1//6
f 4//3 7//3 2//3
f 2//4 7//4 4//4
f 8//3 1//3 5//3
f 5//4 1//4 8//4
f 6//5 1//5 9//5
f 9//6 1//6 6//6
f 6//3 7//3 4//3
f 4//4 7//4 6//4
f 2//3 7//3 10//3
f 10//4 7//4 2//4
f 11//3 1//3 8//3
f 8//4 1//4 11//4
f 5//2 12//2 8//2
f 8//1 12//1 5//1
f 1//3 11//3 9//3
f 9//4 11//4 1//4
f 7//3 6//3 13//3
f 13//4 6//4 7//4
f 7//1 14//1 10//1
f 10//2 14//2 7//2
f 12//6 11//6 8//6
f 8//5 11//5 12//5
f 12//2 5//2 15//2
f 15//1 5//1 12//1
f 16//5 7//5 13//5
f 13//6 7//6 16//6
f 14//1 7//1 17//1
f 17//2 7//2 14//2
f 11//6 12//6 18//6
f 18//5 12//5 11//5
f 19//3 12//3 15//3
f 15//4 12//4 19//4
f 7//5 16//5 17//5
f 17//6 16//6 7//6
f 17//4 20//4 14//4
f 14//3 20//3 17//3
f 12//3 21//3 18//3
f 18//4 21//4 12//4
f 22//3 12//3 19//3
f 19//4 12//4 22//4
f 16//4 20//4 17//4
f 17//3 20//3 16//3
f 14//4 20//4 23//4
f 23//3 20//3 14//3
f 21//3 12//3 22//3
f 22//4 12//4 21//4
f 19//7 24//7 22//7
f 22//8 24//8 19//8
f 20//4 16//4 25//4
f 25//3 16//3 20//3
f 20//1 26//1 23//1
f 23//2 26//2 20//2
f 24//9 21//9 22//9
f 22//10 21//10 24//10
f 24//7 19//7 27//7
f 27//8 19//8 24//8
f 28//5 20//5 25//5
f 25//6 20//6 28//6
f 26//1 20//1 29//1
f 29//2 20//2 26//2
f 21//9 24//9 30//9
f 30//10 24//10 21//10
f 27//11 31//11 24//11
f 24//12 31//12 27//12
f 20//5 28//5 29//5
f 29//6 28//6 20//6
f 29//4 32//13 26//4
f 26//3 32//14 29//3
f 31//15 30//15 24//15
f 24//16 30//16 31//16
f 31//11 27//11 33//11
f 33//12 27//12 31//12
f 28//4 32//13 29//4
f 29//3 32//14 28//3
f 26//4 32//13 34//17
f 34//18 32//14 26//3
f 30//15 31//15 35//15
f 35//16 31//16 30//16
f 36//4 31//4 33//4
f 33//3 31//3 36//3
f 32//13 28//4 37//19
f 37//20 28//3 32//14
f 38//21 34//17 32//13
f 32//14 34//18 38//22
f 31//4 39//4 35//4
f 35//3 39//3 31//3
f 40//4 31//4 36//4
f 36//3 31//3 40//3
f 37//19 38//23 32//13
f 32//14 38//24 37//20
f 34//17 38//21 41//21
f 41//22 38//22 34//18
f 39//4 31//4 40//4
f 40//3 31//3 39//3
f 36//2 42//2 40//2
f 40//1 42//1 36//1
f 38//23 37//19 43//23
f 43//24 37//20 38//24
f 38//21 44//25 41//21
f 41//22 44//26 38//22
f 42//6 39//6 40//6
f 40//5 39//5 42//5
f 42//2 36//2 45//2
f 45//1 36//1 42//1
f 46//27 38//23 43//23
f 43//24 38//24 46//28
f 44//25 38//21 47//25
f 47//26 38//22 44//26
f 39//6 42//6 48//6
f 48//5 42//5 39//5
f 49//3 42//3 45//3
f 45//4 42//4 49//4
f 38//23 46//27 47//27
f 47//28 46//28 38//24
f 47//4 50//29 44//4
f 44//3 50//30 47//3
f 42//3 51//3 48//3
f 48//4 51//4 42//4
f 52//3 42//3 49//3
f 49//4 42//4 52//4
f 46//4 50//29 47//4
f 47//3 50//30 46//3
f 44//4 50//29 53//31
f 53//32 50//30 44//3
f 51//3 42//3 52//3
f 52//4 42//4 51//4
f 49//2 54//33 52//2
f 52//1 54//34 49//1
f 50//29 46//4 55//35
f 55//36 46//3 50//30
f 50//29 56//33 53//31
f 53//32 56//34 50//30
f 54//37 51//6 52//6
f 52//5 51//5 54//38
f 54//33 49//2 56//33
f 56//34 49//1 54//34
f 57//37 50//29 55//35
f 55//36 50//30 57//38
f 56//33 50//29 54//33
f 54//34 50//30 56//34
f 51//6 54//37 57//37
f 57//38 54//38 51//5
f 50//29 57//37 54//37
f 54//38 57//38 50//30
