# SSTK version 0.8.0
# 7
mtllib original-7.mtl
o FRAME_CL1/FRAME_CL/mesh47/mesh47-geometry#mesh47-geometry
v -0.529382 0.741013 -0.060523
v -0.554473 -0.627607 -0.060523
v -0.529382 -0.627607 -0.060523
v -0.554473 0.741013 -0.060523
v -0.529382 -0.627607 -0.064356
v -0.554473 0.741013 -0.006441
v -0.529382 0.741013 -0.064356
v -0.554473 -0.627607 -0.006441
v -0.531100 0.741013 -0.066074
v -0.530685 -0.627607 -0.006441
v -0.531100 -0.627607 -0.066074
v -0.530685 0.741013 -0.006441
v -0.533292 0.741013 -0.066074
v -0.530685 -0.627607 0.002814
v -0.533292 -0.627607 -0.066074
v -0.530685 0.741013 0.002814
v -0.535150 -0.627607 -0.073008
v -0.540787 -0.627607 0.002814
v -0.535150 0.741013 -0.073008
v -0.540787 0.741013 0.002814
v -0.536730 0.741013 -0.074220
v -0.540787 -0.627607 0.048793
v -0.536730 -0.627607 -0.074220
v -0.540787 0.741013 0.048793
v -0.563127 0.741013 -0.074220
v -0.532640 -0.627607 0.048793
v -0.563127 -0.627607 -0.074220
v -0.532640 0.741013 0.048793
v -0.565227 -0.627607 -0.072120
v -0.532640 0.741013 0.051400
v -0.565227 0.741013 -0.072120
v -0.532640 -0.627607 0.051400
v -0.565227 -0.627607 0.061520
v -0.539158 0.741013 0.063619
v -0.565227 0.741013 0.061520
v -0.539158 -0.627607 0.063619
v -0.563127 -0.627607 0.063619
v -0.563127 0.741013 0.063619
vn 0 0 1
vn 0 0 -1
vn 0.9238797538373538 0 -0.38268289803626016
vn 1 0 0
vn -1 0 0
vn -0.9238797538373538 0 0.38268289803626016
vn 0.38268289803626016 0 -0.9238797538373538
vn -0.38268289803626016 0 0.9238797538373538
vn 0.8314698396094833 0 -0.5555698928305779
vn 0.965925849201117 0 -0.2588189595935754
vn -0.965925849201117 0 0.2588189595935754
vn -0.8314698396094833 0 0.5555698928305779
vn 0.3214390874923564 0 -0.9469302577445085
vn -0.3214390874923564 0 0.9469302577445085
vn -0.38268289803626016 0 -0.9238797538373538
vn 0.38268289803626016 0 0.9238797538373538
vn -0.7071067811865476 0 -0.7071067811865476
vn 0.7071067811865476 0 0.7071067811865476
vn 0.8823530519030963 0 0.47058802768163566
vn -0.8823530519030963 0 -0.47058802768163566
vn -0.7071067811865476 0 0.7071067811865476
vn 0.7071067811865476 0 -0.7071067811865476
usemtl material_0_0
f 1//1 2//1 3//1
f 2//1 1//1 4//1
f 3//2 2//2 1//2
f 4//2 1//2 2//2
f 5//3 1//4 3//4
f 3//5 1//5 5//6
f 6//4 2//4 4//4
f 4//5 2//5 6//5
f 1//4 5//3 7//3
f 7//6 5//6 1//5
f 2//4 6//4 8//4
f 8//5 6//5 2//5
f 5//3 9//7 7//3
f 7//6 9//8 5//6
f 6//2 10//2 8//2
f 8//1 10//1 6//1
f 9//7 5//3 11//7
f 11//8 5//6 9//8
f 10//2 6//2 12//2
f 12//1 6//1 10//1
f 11//7 13//2 9//7
f 9//8 13//1 11//8
f 12//4 14//4 10//4
f 10//5 14//5 12//5
f 13//2 11//7 15//2
f 15//1 11//8 13//1
f 14//4 12//4 16//4
f 16//5 12//5 14//5
f 17//9 13//10 15//10
f 15//11 13//11 17//12
f 16//1 18//1 14//1
f 14//2 18//2 16//2
f 13//10 17//9 19//9
f 19//12 17//12 13//11
f 18//1 16//1 20//1
f 20//2 16//2 18//2
f 17//9 21//13 19//9
f 19//12 21//14 17//12
f 20//4 22//4 18//4
f 18//5 22//5 20//5
f 21//13 17//9 23//13
f 23//14 17//12 21//14
f 22//4 20//4 24//4
f 24//5 20//5 22//5
f 23//13 25//15 21//13
f 21//14 25//16 23//14
f 24//2 26//2 22//2
f 22//1 26//1 24//1
f 25//15 23//13 27//15
f 27//16 23//14 25//16
f 26//2 24//2 28//2
f 28//1 24//1 26//1
f 29//17 25//15 27//15
f 27//16 25//16 29//18
f 30//4 26//4 28//4
f 28//5 26//5 30//5
f 25//15 29//17 31//17
f 31//18 29//18 25//16
f 26//4 30//4 32//4
f 32//5 30//5 26//5
f 33//5 31//5 29//5
f 29//4 31//4 33//4
f 34//19 32//19 30//19
f 30//20 32//20 34//20
f 31//5 33//5 35//5
f 35//4 33//4 31//4
f 32//19 34//19 36//19
f 36//20 34//20 32//20
f 37//8 35//21 33//21
f 33//22 35//22 37//7
f 34//1 37//8 36//1
f 36//2 37//7 34//2
f 35//21 37//8 38//8
f 38//7 37//7 35//22
f 37//8 34//1 38//8
f 38//7 34//2 37//7
