# SSTK version 0.8.0
# 46
mtllib original-46.mtl
o mesh373/mesh373-geometry#mesh373-geometry
v -0.022081 0.090795 -0.014616
v -0.022081 0.065117 -0.001064
v -0.022081 0.090795 -0.001064
v -0.022081 0.065117 -0.030584
v 0.064731 0.090795 -0.001064
v -0.022081 0.090723 -0.015296
v 0.064731 0.065117 -0.001064
v 0.064731 0.090795 -0.014616
v 0.064731 0.090723 -0.015296
v -0.022081 0.090511 -0.015946
v 0.064731 0.065117 -0.030584
v -0.022081 0.090168 -0.016538
v -0.022081 0.071758 -0.030584
v 0.064731 0.090511 -0.015946
v -0.022081 0.085103 -0.022271
v 0.064731 0.071758 -0.030584
v -0.022081 0.073201 -0.030030
v 0.064731 0.090168 -0.016538
v -0.022081 0.079068 -0.026973
v 0.064731 0.073201 -0.030030
v -0.022081 0.074624 -0.029423
v 0.064731 0.085103 -0.022271
v 0.064731 0.079068 -0.026973
v 0.064731 0.074624 -0.029423
vn -1 0 0
vn 1 0 0
vn 0 0 1
vn 0 0 -1
vn 0 1 0
vn 0 0.998616082925083 -0.05259200436724001
vn 0 -1 0
vn 0 -0.998616082925083 0.05259200436724001
vn 0 0.9779451182976274 -0.20886202526510064
vn 0 -0.9779451182976274 0.20886202526510064
vn 0 0.9128666557338581 -0.40825784603517623
vn 0 -0.9128666557338581 0.40825784603517623
vn 0 0.811227983416878 -0.5847299880469495
vn 0 -0.811227983416878 0.5847299880469495
vn 0 0.6849500374667682 -0.7285900398538762
vn 0 -0.6849500374667682 0.7285900398538762
vn 0 0.3755529719443166 -0.926800930763339
vn 0 0.35818903314645667 -0.9336490863989567
vn 0 -0.35818903314645667 0.9336490863989567
vn 0 -0.3755529719443166 0.926800930763339
vn 0 0.5503928670017079 -0.8349057982512998
vn 0 -0.5503928670017079 0.8349057982512998
vn 0 0.4383199962389955 -0.8988189922876835
vn 0 -0.4383199962389955 0.8988189922876835
usemtl material_0_0
f 1//1 2//1 3//1
f 2//1 1//1 4//1
f 3//2 2//2 1//2
f 4//2 1//2 2//2
f 2//3 5//3 3//3
f 3//4 5//4 2//4
f 5//5 1//6 3//5
f 3//7 1//8 5//7
f 4//1 1//1 6//1
f 6//2 1//2 4//2
f 4//7 7//7 2//7
f 2//5 7//5 4//5
f 5//3 2//3 7//3
f 7//4 2//4 5//4
f 1//6 5//5 8//6
f 8//8 5//7 1//8
f 1//6 9//9 6//9
f 6//10 9//10 1//8
f 4//1 6//1 10//1
f 10//2 6//2 4//2
f 7//7 4//7 11//7
f 11//5 4//5 7//5
f 11//2 5//2 7//2
f 7//1 5//1 11//1
f 5//2 11//2 8//2
f 8//1 11//1 5//1
f 9//9 1//6 8//6
f 8//8 1//8 9//10
f 9//9 10//11 6//9
f 6//10 10//12 9//10
f 4//1 10//1 12//1
f 12//2 10//2 4//2
f 13//4 11//4 4//4
f 4//3 11//3 13//3
f 8//2 11//2 9//2
f 9//1 11//1 8//1
f 10//11 9//9 14//11
f 14//12 9//10 10//12
f 14//11 12//13 10//11
f 10//12 12//14 14//12
f 4//1 12//1 15//1
f 15//2 12//2 4//2
f 11//4 13//4 16//4
f 16//3 13//3 11//3
f 4//1 17//1 13//1
f 13//2 17//2 4//2
f 9//2 11//2 14//2
f 14//1 11//1 9//1
f 12//13 14//11 18//13
f 18//14 14//12 12//14
f 18//13 15//15 12//13
f 12//14 15//16 18//14
f 4//1 15//1 19//1
f 19//2 15//2 4//2
f 17//17 16//18 13//18
f 13//19 16//19 17//20
f 20//2 11//2 16//2
f 16//1 11//1 20//1
f 4//1 21//1 17//1
f 17//2 21//2 4//2
f 14//2 11//2 18//2
f 18//1 11//1 14//1
f 15//15 18//13 22//15
f 22//16 18//14 15//16
f 15//15 23//21 19//21
f 19//22 23//22 15//16
f 4//1 19//1 21//1
f 21//2 19//2 4//2
f 16//18 17//17 20//17
f 20//20 17//20 16//19
f 24//2 11//2 20//2
f 20//1 11//1 24//1
f 21//23 20//17 17//17
f 17//20 20//20 21//24
f 18//2 11//2 22//2
f 22//1 11//1 18//1
f 23//21 15//15 22//15
f 22//16 15//16 23//22
f 24//23 19//21 23//21
f 23//22 19//22 24//24
f 19//21 24//23 21//23
f 21//24 24//24 19//22
f 23//2 11//2 24//2
f 24//1 11//1 23//1
f 20//17 21//23 24//23
f 24//24 21//24 20//20
f 22//2 11//2 23//2
f 23//1 11//1 22//1
