# SSTK version 0.8.0
# 40
mtllib original-40.mtl
o _1_16_GRID_H_1_1/_1_16_GRID_H_1/mesh366/mesh366-geometry#mesh366-geometry
v -0.504290 -0.300104 -0.035725
v 0.546941 -0.302444 -0.035997
v -0.504290 -0.302444 -0.035997
v 0.546941 -0.300104 -0.035725
v 0.546941 -0.304658 -0.036800
v -0.504290 -0.334727 -0.035725
v 0.546941 -0.300104 -0.027578
v 0.546941 -0.332387 -0.035997
v -0.504290 -0.304658 -0.036800
v 0.546941 -0.330173 -0.036800
v -0.504290 -0.334727 -0.027578
v -0.504290 -0.332387 -0.035997
v -0.504290 -0.300104 -0.027578
v 0.546941 -0.334727 -0.035725
v 0.546941 -0.306629 -0.038090
v 0.546941 -0.328202 -0.038090
v -0.504290 -0.302444 -0.027306
v 0.546941 -0.334727 -0.027578
v -0.504290 -0.330173 -0.036800
v -0.504290 -0.306629 -0.038090
v -0.504290 -0.328202 -0.038090
v -0.504290 -0.332387 -0.027306
v 0.546941 -0.302444 -0.027306
v -0.504290 -0.308251 -0.039798
v 0.546941 -0.326581 -0.039798
v 0.546941 -0.304658 -0.026503
v -0.504290 -0.330173 -0.026503
v 0.546941 -0.332387 -0.027306
v 0.546941 -0.308251 -0.039798
v -0.504290 -0.326581 -0.039798
v -0.504290 -0.304658 -0.026503
v -0.504290 -0.306629 -0.025213
v 0.546941 -0.330173 -0.026503
v -0.504290 -0.328202 -0.025213
v 0.546941 -0.306629 -0.025213
v 0.546941 -0.328202 -0.025213
v 0.546941 -0.308251 -0.023505
v -0.504290 -0.326581 -0.023505
v -0.504290 -0.308251 -0.023505
v 0.546941 -0.326581 -0.023505
vn 0 0.11565296296162433 -0.9932896818945605
vn 0 0.22975299345089123 -0.9732489722575384
vn 0 -0.22975299345089123 0.9732489722575384
vn 0 -0.11565296296162433 0.9932896818945605
vn 0 0.4472139954999094 -0.8944269909998284
vn 0 -0.4472139954999094 0.8944269909998284
vn -1 0 0
vn 1 0 0
vn 0 1 0
vn 0 -1 0
vn 0 0.6407470475713053 -0.7677520570006018
vn 0 -0.6407470475713053 0.7677520570006018
vn 0 -0.22975299345089079 -0.9732489722575384
vn 0 -0.11565296296162389 -0.9932896818945605
vn 0 0.11565296296162389 0.9932896818945605
vn 0 0.22975299345089079 0.9732489722575384
vn 0 -0.447213995499909 -0.8944269909998286
vn 0 0.447213995499909 0.8944269909998286
vn 0 -0.6407470475713051 -0.7677520570006022
vn 0 0.6407470475713051 0.7677520570006022
vn 0 0.7252400726632572 -0.6884960689818015
vn 0 -0.7252400726632572 0.6884960689818015
vn 0 -0.725240072663257 -0.6884960689818017
vn 0 0.725240072663257 0.6884960689818017
vn 0 0 -1
vn 0 0 1
usemtl material_0_0
f 1//1 2//2 3//2
f 2//2 1//1 4//1
f 3//3 2//3 1//4
f 4//4 1//4 2//3
f 5//5 3//2 2//2
f 2//3 3//3 5//6
f 6//7 1//7 3//7
f 3//8 1//8 6//8
f 1//9 7//9 4//9
f 4//10 7//10 1//10
f 4//8 8//8 2//8
f 2//7 8//7 4//7
f 3//2 5//5 9//5
f 9//6 5//6 3//3
f 2//8 10//8 5//8
f 5//7 10//7 2//7
f 11//7 1//7 6//7
f 6//8 1//8 11//8
f 6//7 3//7 12//7
f 12//8 3//8 6//8
f 7//9 1//9 13//9
f 13//10 1//10 7//10
f 7//8 14//8 4//8
f 4//7 14//7 7//7
f 4//8 14//8 8//8
f 8//7 14//7 4//7
f 2//8 8//8 10//8
f 10//7 8//7 2//7
f 15//11 9//5 5//5
f 5//6 9//6 15//12
f 12//7 3//7 9//7
f 9//8 3//8 12//8
f 5//8 10//8 16//8
f 16//7 10//7 5//7
f 11//7 13//7 1//7
f 1//8 13//8 11//8
f 14//10 11//10 6//10
f 6//9 11//9 14//9
f 12//13 14//14 6//14
f 6//15 14//15 12//16
f 17//16 7//15 13//15
f 13//14 7//14 17//13
f 7//8 18//8 14//8
f 14//7 18//7 7//7
f 14//14 12//13 8//13
f 8//16 12//16 14//15
f 8//13 19//17 10//17
f 10//18 19//18 8//16
f 9//5 15//11 20//11
f 20//12 15//12 9//6
f 5//8 16//8 15//8
f 15//7 16//7 5//7
f 12//7 9//7 19//7
f 19//8 9//8 12//8
f 10//17 21//19 16//19
f 16//20 21//20 10//18
f 22//7 13//7 11//7
f 11//8 13//8 22//8
f 11//10 14//10 18//10
f 18//9 14//9 11//9
f 7//15 17//16 23//16
f 23//13 17//13 7//14
f 22//7 17//7 13//7
f 13//8 17//8 22//8
f 23//8 18//8 7//8
f 7//7 18//7 23//7
f 19//17 8//13 12//13
f 12//16 8//16 19//18
f 21//19 10//17 19//17
f 19//18 10//18 21//20
f 15//11 24//21 20//11
f 20//12 24//22 15//12
f 19//7 9//7 20//7
f 20//8 9//8 19//8
f 15//8 16//8 25//8
f 25//7 16//7 15//7
f 21//19 25//23 16//19
f 16//20 25//24 21//20
f 18//4 22//3 11//4
f 11//1 22//2 18//1
f 17//16 26//18 23//16
f 23//13 26//17 17//13
f 27//7 17//7 22//7
f 22//8 17//8 27//8
f 23//8 28//8 18//8
f 18//7 28//7 23//7
f 19//7 20//7 21//7
f 21//8 20//8 19//8
f 24//21 15//11 29//21
f 29//22 15//12 24//22
f 21//7 20//7 24//7
f 24//8 20//8 21//8
f 15//8 25//8 29//8
f 29//7 25//7 15//7
f 25//23 21//19 30//23
f 30//24 21//20 25//24
f 22//3 18//4 28//3
f 28//2 18//1 22//2
f 26//18 17//16 31//18
f 31//17 17//13 26//17
f 26//8 28//8 23//8
f 23//7 28//7 26//7
f 27//7 31//7 17//7
f 17//8 31//8 27//8
f 28//3 27//6 22//3
f 22//2 27//5 28//2
f 25//25 24//25 29//25
f 29//26 24//26 25//26
f 21//7 24//7 30//7
f 30//8 24//8 21//8
f 24//25 25//25 30//25
f 30//26 25//26 24//26
f 32//20 26//18 31//18
f 31//17 26//17 32//19
f 26//8 33//8 28//8
f 28//7 33//7 26//7
f 34//7 31//7 27//7
f 27//8 31//8 34//8
f 27//6 28//3 33//6
f 33//5 28//2 27//5
f 26//18 32//20 35//20
f 35//19 32//19 26//17
f 34//7 32//7 31//7
f 31//8 32//8 34//8
f 35//8 33//8 26//8
f 26//7 33//7 35//7
f 27//6 36//12 34//12
f 34//11 36//11 27//5
f 36//12 27//6 33//6
f 33//5 27//5 36//11
f 32//20 37//24 35//20
f 35//19 37//23 32//19
f 38//7 32//7 34//7
f 34//8 32//8 38//8
f 35//8 36//8 33//8
f 33//7 36//7 35//7
f 36//12 38//22 34//12
f 34//11 38//21 36//11
f 37//24 32//20 39//24
f 39//23 32//19 37//23
f 37//8 36//8 35//8
f 35//7 36//7 37//7
f 32//7 38//7 39//7
f 39//8 38//8 32//8
f 38//22 36//12 40//22
f 40//21 36//11 38//21
f 39//26 40//26 37//26
f 37//25 40//25 39//25
f 36//8 37//8 40//8
f 40//7 37//7 36//7
f 40//26 39//26 38//26
f 38//25 39//25 40//25
