# SSTK version 0.8.0
# 24
mtllib original-24.mtl
o TF_TC1/TF_TC/mesh201/mesh201-geometry#mesh201-geometry
v -0.442051 0.768856 0.002949
v 0.484679 0.767276 0.004161
v -0.442051 0.767276 0.004161
v 0.484679 0.768856 0.002949
v -0.442051 0.765942 0.009141
v -0.442051 0.805208 0.002949
v 0.484679 0.765942 0.009141
v 0.484679 0.805208 0.002949
v 0.484679 0.763749 0.009141
v 0.484679 0.805208 0.004904
v -0.442051 0.763749 0.009141
v -0.442051 0.805208 0.004904
v 0.484679 0.762031 0.010859
v -0.442051 0.813355 0.004904
v -0.442051 0.762031 0.010859
v 0.484679 0.813355 0.004904
v -0.442051 0.762031 0.015825
v 0.484679 0.813355 0.050851
v 0.484679 0.762031 0.015825
v -0.442051 0.813355 0.050851
v -0.442051 0.777836 0.015825
v -0.442051 0.805208 0.050851
v 0.484679 0.777836 0.015825
v 0.484679 0.805208 0.050851
v -0.442051 0.777836 0.044338
v 0.484679 0.805208 0.053458
v 0.484679 0.777836 0.044338
v -0.442051 0.805208 0.053458
v 0.484679 0.762278 0.044338
v 0.484679 0.781909 0.053458
v -0.442051 0.762278 0.044338
v -0.442051 0.781909 0.053458
v -0.442051 0.762275 0.045164
v 0.484679 0.781909 0.053137
v 0.484679 0.762275 0.045164
v -0.442051 0.781909 0.053137
v -0.442051 0.766877 0.053137
v 0.484679 0.766877 0.053137
vn 0 -0.3214399841690809 -0.946929953363701
vn 0 -0.8314698396094832 -0.5555698928305781
vn 0 0.8314698396094832 0.5555698928305781
vn 0 0.3214399841690809 0.946929953363701
vn 0 -0.9659258492011171 -0.2588189595935757
vn 0 0.9659258492011171 0.2588189595935757
vn 0 0 -1
vn 0 0 1
vn 0 -0.38268289803625993 -0.9238797538373539
vn 0 0.38268289803625993 0.9238797538373539
vn 0 1 0
vn 0 -1 0
vn 0 -0.9238797538373537 -0.3826828980362604
vn 0 0.9238797538373537 0.3826828980362604
vn 0 -0.9999910746463365 -0.004225000315383832
vn 0 0.9999910746463365 0.004225000315383832
vn 0 -0.8660253028382763 0.5000001748438415
vn 0 0.8660253028382763 -0.5000001748438415
usemtl material_0_0
f 1//1 2//2 3//2
f 2//2 1//1 4//1
f 3//3 2//3 1//4
f 4//4 1//4 2//3
f 2//2 5//5 3//2
f 3//3 5//6 2//3
f 6//7 4//1 1//1
f 1//4 4//4 6//8
f 5//5 2//2 7//5
f 7//6 2//3 5//6
f 4//1 6//7 8//7
f 8//8 6//8 4//4
f 9//9 5//7 7//7
f 7//8 5//8 9//10
f 6//11 10//11 8//11
f 8//12 10//12 6//12
f 5//7 9//9 11//9
f 11//10 9//10 5//8
f 10//11 6//11 12//11
f 12//12 6//12 10//12
f 13//13 11//9 9//9
f 9//10 11//10 13//14
f 14//7 10//7 12//7
f 12//8 10//8 14//8
f 11//9 13//13 15//13
f 15//14 13//14 11//10
f 10//7 14//7 16//7
f 16//8 14//8 10//8
f 13//13 17//12 15//13
f 15//14 17//11 13//14
f 14//11 18//11 16//11
f 16//12 18//12 14//12
f 17//12 13//13 19//12
f 19//11 13//14 17//11
f 18//11 14//11 20//11
f 20//12 14//12 18//12
f 19//8 21//8 17//8
f 17//7 21//7 19//7
f 22//8 18//8 20//8
f 20//7 18//7 22//7
f 21//8 19//8 23//8
f 23//7 19//7 21//7
f 18//8 22//8 24//8
f 24//7 22//7 18//7
f 23//12 25//12 21//12
f 21//11 25//11 23//11
f 22//11 26//11 24//11
f 24//12 26//12 22//12
f 25//12 23//12 27//12
f 27//11 23//11 25//11
f 26//11 22//11 28//11
f 28//12 22//12 26//12
f 29//7 25//7 27//7
f 27//8 25//8 29//8
f 28//8 30//8 26//8
f 26//7 30//7 28//7
f 25//7 29//7 31//7
f 31//8 29//8 25//8
f 30//8 28//8 32//8
f 32//7 28//7 30//7
f 29//15 33//15 31//15
f 31//16 33//16 29//16
f 32//12 34//12 30//12
f 30//11 34//11 32//11
f 33//15 29//15 35//15
f 35//16 29//16 33//16
f 34//12 32//12 36//12
f 36//11 32//11 34//11
f 35//17 37//17 33//17
f 33//18 37//18 35//18
f 36//8 38//8 34//8
f 34//7 38//7 36//7
f 37//17 35//17 38//17
f 38//18 35//18 37//18
f 38//8 36//8 37//8
f 37//7 36//7 38//7
