# SSTK version 0.8.0
# 38
mtllib original-38.mtl
o BF_CR1/BF_CR/mesh334/mesh334-geometry#mesh334-geometry
v 0.531380 -0.032641 -0.016583
v 0.535982 -0.602190 -0.008611
v 0.535982 -0.032641 -0.008611
v 0.531380 -0.602190 -0.016583
v 0.551014 -0.032641 -0.008611
v 0.531383 -0.032641 -0.017409
v 0.551014 -0.602190 -0.008611
v 0.531383 -0.602190 -0.017409
v 0.551014 -0.602190 -0.008290
v 0.546941 -0.602190 -0.017409
v 0.551014 -0.032641 -0.008290
v 0.546941 -0.032641 -0.017409
v 0.574313 -0.032641 -0.008290
v 0.546941 -0.032641 -0.045922
v 0.574313 -0.602190 -0.008290
v 0.546941 -0.602190 -0.045922
v 0.574313 -0.602190 -0.010897
v 0.531136 -0.602190 -0.045922
v 0.574313 -0.032641 -0.010897
v 0.531136 -0.032641 -0.045922
v 0.582460 -0.032641 -0.010897
v 0.531136 -0.032641 -0.050889
v 0.582460 -0.602190 -0.010897
v 0.531136 -0.602190 -0.050889
v 0.582460 -0.602190 -0.056843
v 0.532854 -0.602190 -0.052607
v 0.582460 -0.032641 -0.056843
v 0.532854 -0.032641 -0.052607
v 0.574313 -0.032641 -0.056843
v 0.535047 -0.602190 -0.052607
v 0.574313 -0.602190 -0.056843
v 0.535047 -0.032641 -0.052607
v 0.574313 -0.602190 -0.058798
v 0.536381 -0.032641 -0.057586
v 0.574313 -0.032641 -0.058798
v 0.536381 -0.602190 -0.057586
v 0.537960 -0.032641 -0.058798
v 0.537960 -0.602190 -0.058798
vn -0.8660253028382762 0 0.5000001748438417
vn 0.8660253028382762 0 -0.5000001748438417
vn 0 0 1
vn 0 0 -1
vn -0.9999910746463365 0 -0.00422500031538361
vn 0.9999910746463365 0 0.00422500031538361
vn -1 0 0
vn 1 0 0
vn -0.9238797538373538 0 -0.38268289803626016
vn 0.9238797538373538 0 0.38268289803626016
vn -0.38268289803626016 0 -0.9238797538373538
vn 0.38268289803626016 0 0.9238797538373538
vn -0.8314698396094833 0 -0.5555698928305779
vn -0.965925849201117 0 -0.2588189595935754
vn 0.965925849201117 0 0.2588189595935754
vn 0.8314698396094833 0 0.5555698928305779
vn -0.3214399841690811 0 -0.9469299533637009
vn 0.3214399841690811 0 0.9469299533637009
usemtl material_0_0
f 1//1 2//1 3//1
f 2//1 1//1 4//1
f 3//2 2//2 1//2
f 4//2 1//2 2//2
f 2//3 5//3 3//3
f 3//4 5//4 2//4
f 6//5 4//5 1//5
f 1//6 4//6 6//6
f 5//3 2//3 7//3
f 7//4 2//4 5//4
f 4//5 6//5 8//5
f 8//6 6//6 4//6
f 9//7 5//7 7//7
f 7//8 5//8 9//8
f 6//4 10//4 8//4
f 8//3 10//3 6//3
f 5//7 9//7 11//7
f 11//8 9//8 5//8
f 10//4 6//4 12//4
f 12//3 6//3 10//3
f 9//3 13//3 11//3
f 11//4 13//4 9//4
f 14//7 10//7 12//7
f 12//8 10//8 14//8
f 13//3 9//3 15//3
f 15//4 9//4 13//4
f 10//7 14//7 16//7
f 16//8 14//8 10//8
f 17//8 13//8 15//8
f 15//7 13//7 17//7
f 14//3 18//3 16//3
f 16//4 18//4 14//4
f 13//8 17//8 19//8
f 19//7 17//7 13//7
f 18//3 14//3 20//3
f 20//4 14//4 18//4
f 17//3 21//3 19//3
f 19//4 21//4 17//4
f 22//9 18//7 20//7
f 20//8 18//8 22//10
f 21//3 17//3 23//3
f 23//4 17//4 21//4
f 18//7 22//9 24//9
f 24//10 22//10 18//8
f 25//8 21//8 23//8
f 23//7 21//7 25//7
f 22//9 26//11 24//9
f 24//10 26//12 22//10
f 21//8 25//8 27//8
f 27//7 25//7 21//7
f 26//11 22//9 28//11
f 28//12 22//10 26//12
f 25//4 29//4 27//4
f 27//3 29//3 25//3
f 28//11 30//4 26//11
f 26//12 30//3 28//12
f 29//4 25//4 31//4
f 31//3 25//3 29//3
f 30//4 28//11 32//4
f 32//3 28//12 30//3
f 33//8 29//8 31//8
f 31//7 29//7 33//7
f 34//13 30//14 32//14
f 32//15 30//15 34//16
f 29//8 33//8 35//8
f 35//7 33//7 29//7
f 30//14 34//13 36//13
f 36//16 34//16 30//15
f 33//4 37//17 35//4
f 35//3 37//18 33//3
f 34//13 38//17 36//13
f 36//16 38//18 34//16
f 37//17 33//4 38//17
f 38//18 33//3 37//18
f 38//17 34//13 37//17
f 37//18 34//16 38//18
