# SSTK version 0.8.0
# 18
mtllib original-18.mtl
o BF2_BC1/BF2_BC/mesh154/mesh154-geometry#mesh154-geometry
v -0.443028 -0.689358 -0.006441
v 0.485678 -0.690824 -0.006441
v -0.443028 -0.690824 -0.006441
v 0.485678 -0.689358 -0.006441
v -0.443028 -0.690824 0.002814
v 0.485678 -0.689358 0.016460
v 0.485678 -0.690824 0.002814
v -0.443028 -0.689358 0.016460
v 0.485678 -0.700926 0.002814
v -0.443028 -0.694735 0.016460
v -0.443028 -0.700926 0.002814
v 0.485678 -0.694735 0.016460
v -0.443028 -0.700926 0.048793
v 0.485678 -0.694735 0.032758
v 0.485678 -0.700926 0.048793
v -0.443028 -0.694735 0.032758
v 0.485678 -0.692780 0.048793
v -0.443028 -0.692780 0.032758
v -0.443028 -0.692780 0.048793
v 0.485678 -0.692780 0.032758
vn 0 0 -1
vn 0 0 1
vn 0 -1 0
vn 0 1 0
usemtl material_0_0
f 1//1 2//1 3//1
f 2//1 1//1 4//1
f 3//2 2//2 1//2
f 4//2 1//2 2//2
f 2//3 5//3 3//3
f 3//4 5//4 2//4
f 1//4 6//4 4//4
f 4//3 6//3 1//3
f 5//3 2//3 7//3
f 7//4 2//4 5//4
f 6//4 1//4 8//4
f 8//3 1//3 6//3
f 9//1 5//1 7//1
f 7//2 5//2 9//2
f 10//2 6//2 8//2
f 8//1 6//1 10//1
f 5//1 9//1 11//1
f 11//2 9//2 5//2
f 6//2 10//2 12//2
f 12//1 10//1 6//1
f 9//3 13//3 11//3
f 11//4 13//4 9//4
f 10//4 14//4 12//4
f 12//3 14//3 10//3
f 13//3 9//3 15//3
f 15//4 9//4 13//4
f 14//4 10//4 16//4
f 16//3 10//3 14//3
f 17//2 13//2 15//2
f 15//1 13//1 17//1
f 18//1 14//1 16//1
f 16//2 14//2 18//2
f 13//2 17//2 19//2
f 19//1 17//1 13//1
f 14//1 18//1 20//1
f 20//2 18//2 14//2
f 17//4 18//4 19//4
f 19//3 18//3 17//3
f 18//4 17//4 20//4
f 20//3 17//3 18//3
