# SSTK version 0.8.0
# 15
mtllib original-15.mtl
o BF2_TC1/BF2_TC/mesh111/mesh111-geometry#mesh111-geometry
v -0.443028 0.044075 -0.004721
v 0.485678 0.032172 -0.004721
v -0.443028 0.032172 -0.004721
v 0.485678 0.044075 -0.004721
v -0.443028 0.032172 -0.006441
v -0.443028 0.048066 -0.007002
v 0.485678 0.032172 -0.006441
v 0.485678 0.048066 -0.007002
v 0.485678 0.029590 -0.006441
v -0.443028 0.060585 -0.007002
v -0.443028 0.029590 -0.006441
v 0.485678 0.060585 -0.007002
v -0.443028 0.029590 0.016460
v 0.485678 0.060585 -0.005053
v 0.485678 0.029590 0.016460
v -0.443028 0.060585 -0.005053
v 0.485678 0.042884 0.016460
v 0.485678 0.048066 -0.003085
v -0.443028 0.042884 0.016460
v -0.443028 0.048066 -0.003085
v -0.443028 0.042884 0.032758
v 0.485678 0.048066 0.002814
v 0.485678 0.042884 0.032758
v -0.443028 0.048066 0.002814
v 0.485678 0.029590 0.032758
v -0.443028 0.054364 0.002814
v -0.443028 0.029590 0.032758
v 0.485678 0.054364 0.002814
v -0.443028 0.029590 0.053449
v 0.485678 0.054364 0.004904
v 0.485678 0.029590 0.053449
v -0.443028 0.054364 0.004904
v 0.485678 0.054364 0.053449
v -0.443028 0.046217 0.004904
v -0.443028 0.054364 0.053449
v 0.485678 0.046217 0.004904
v -0.443028 0.054364 0.050851
v 0.485678 0.046217 0.050851
v 0.485678 0.054364 0.050851
v -0.443028 0.046217 0.050851
vn 0 0 -1
vn 0 0 1
vn 0 1 0
vn 0 -1 0
vn 0 -0.4961849222691645 -0.8682168639877614
vn 0 0.4961849222691645 0.8682168639877614
vn 0 0.15528105234051526 0.9878703329810153
vn 0 -0.15528105234051526 -0.9878703329810153
usemtl material_0_0
f 1//1 2//1 3//1
f 2//1 1//1 4//1
f 3//2 2//2 1//2
f 4//2 1//2 2//2
f 2//3 5//3 3//3
f 3//4 5//4 2//4
f 6//5 4//5 1//5
f 1//6 4//6 6//6
f 5//3 2//3 7//3
f 7//4 2//4 5//4
f 4//5 6//5 8//5
f 8//6 6//6 4//6
f 9//1 5//1 7//1
f 7//2 5//2 9//2
f 10//1 8//1 6//1
f 6//2 8//2 10//2
f 5//1 9//1 11//1
f 11//2 9//2 5//2
f 8//1 10//1 12//1
f 12//2 10//2 8//2
f 9//4 13//4 11//4
f 11//3 13//3 9//3
f 10//3 14//3 12//3
f 12//4 14//4 10//4
f 13//4 9//4 15//4
f 15//3 9//3 13//3
f 14//3 10//3 16//3
f 16//4 10//4 14//4
f 17//2 13//2 15//2
f 15//1 13//1 17//1
f 16//7 18//7 14//7
f 14//8 18//8 16//8
f 13//2 17//2 19//2
f 19//1 17//1 13//1
f 18//7 16//7 20//7
f 20//8 16//8 18//8
f 17//4 21//4 19//4
f 19//3 21//3 17//3
f 20//3 22//3 18//3
f 18//4 22//4 20//4
f 21//4 17//4 23//4
f 23//3 17//3 21//3
f 22//3 20//3 24//3
f 24//4 20//4 22//4
f 25//1 21//1 23//1
f 23//2 21//2 25//2
f 26//1 22//1 24//1
f 24//2 22//2 26//2
f 21//1 25//1 27//1
f 27//2 25//2 21//2
f 22//1 26//1 28//1
f 28//2 26//2 22//2
f 25//4 29//4 27//4
f 27//3 29//3 25//3
f 26//3 30//3 28//3
f 28//4 30//4 26//4
f 29//4 25//4 31//4
f 31//3 25//3 29//3
f 30//3 26//3 32//3
f 32//4 26//4 30//4
f 33//2 29//2 31//2
f 31//1 29//1 33//1
f 34//2 30//2 32//2
f 32//1 30//1 34//1
f 29//2 33//2 35//2
f 35//1 33//1 29//1
f 30//2 34//2 36//2
f 36//1 34//1 30//1
f 33//3 37//3 35//3
f 35//4 37//4 33//4
f 34//3 38//3 36//3
f 36//4 38//4 34//4
f 37//3 33//3 39//3
f 39//4 33//4 37//4
f 38//3 34//3 40//3
f 40//4 34//4 38//4
f 38//1 37//1 39//1
f 39//2 37//2 38//2
f 37//1 38//1 40//1
f 40//2 38//2 37//2
