# SSTK version 0.8.0
# 13
mtllib original-13.mtl
o #ID337
v -0.031937 0.221311 -0.234758
v -0.010538 0.221311 -0.189543
v -0.041627 0.221311 -0.226637
v -0.000849 0.221311 -0.197665
v -0.010538 0.221311 -0.189543
v -0.000849 -0.470302 -0.197665
v -0.010538 -0.470302 -0.189543
v -0.000849 0.221311 -0.197665
v -0.031937 0.221311 -0.234758
v -0.041627 -0.470302 -0.226637
v -0.031937 -0.470302 -0.234758
v -0.041627 0.221311 -0.226637
v -0.010538 -0.470302 -0.189543
v -0.031937 -0.470302 -0.234758
v -0.041627 -0.470302 -0.226637
v -0.000849 -0.470302 -0.197665
vn 0 -1 0
vn 0 1 0
vn -0.6423452840090552 0 -0.7664153809203766
vn 0.6423452840090552 0 0.7664153809203766
usemtl material_0_2
f 1//1 2//1 3//1
f 3//2 2//2 1//2
f 2//1 1//1 4//1
f 4//2 1//2 2//2
f 5//3 6//3 7//3
f 7//4 6//4 5//4
f 6//3 5//3 8//3
f 8//4 5//4 6//4
f 9//4 10//4 11//4
f 11//3 10//3 9//3
f 10//4 9//4 12//4
f 12//3 9//3 10//3
f 13//2 14//2 15//2
f 15//1 14//1 13//1
f 14//2 13//2 16//2
f 16//1 13//1 14//1
