# SSTK version 0.8.0
# 7
mtllib original-7.mtl
o #ID288
v 0.115924 -0.633902 -0.082072
v 0.057955 -0.543656 -0.151238
v 0.115924 0.384911 -0.082072
v -0.125340 -0.633902 -0.369937
v -0.067371 -0.543656 -0.300771
v -0.067371 0.294665 -0.300771
v 0.057955 0.294665 -0.151238
v -0.125340 0.384911 -0.369937
vt -0.9234049 1.339506
vt -0.5963803 2.157067
vt -0.9234049 10.56922
vt 0.4376569 1.339506
vt 0.1106322 2.157067
vt 0.1106322 9.751654
vt -0.5963803 9.751654
vt 0.4376569 10.56922
vn 0.7664153809203766 0 -0.6423452840090552
vn -0.7664153809203766 0 0.6423452840090552
usemtl material_0_2
f 1/1/1 2/2/1 3/3/1
f 3/3/2 2/2/2 1/1/2
f 2/2/1 1/1/1 4/4/1
f 4/4/2 1/1/2 2/2/2
f 2/2/1 4/4/1 5/5/1
f 5/5/2 4/4/2 2/2/2
f 5/5/1 4/4/1 6/6/1
f 6/6/2 4/4/2 5/5/2
f 3/3/1 7/7/1 8/8/1
f 8/8/2 7/7/2 3/3/2
f 7/7/1 3/3/1 2/2/1
f 2/2/2 3/3/2 7/7/2
f 8/8/1 7/7/1 6/6/1
f 6/6/2 7/7/2 8/8/2
f 8/8/1 6/6/1 4/4/1
f 4/4/2 6/6/2 8/8/2
